<svg width="224" height="69" viewBox="0 0 224 69" fill="none" xmlns="http://www.w3.org/2000/svg">
<g clip-path="url(#clip0_77_58)">
<path d="M30.3282 40.7074C28.6493 40.7074 26.9344 40.5191 25.1835 40.1423C23.4567 39.7909 21.8017 39.2505 20.2188 38.5224C18.6598 37.819 17.2567 36.9278 16.0095 35.8476C14.7863 34.7928 13.8149 33.5749 13.0954 32.1933C12.3759 30.7871 12.0161 29.2295 12.0161 27.5219C12.0161 26.3664 12.208 25.2364 12.5917 24.1313C12.9995 23.0263 13.5871 22.0342 14.3546 21.1552C15.1221 20.251 16.0575 19.5353 17.1608 19.0078C18.2641 18.4804 19.5352 18.2167 20.9743 18.2167L21.4779 18.6311C19.6551 18.6311 18.1561 19.0078 16.9809 19.7613C15.8296 20.5147 14.9782 21.5194 14.4265 22.7751C13.8749 24.0058 13.5991 25.3369 13.5991 26.7684C13.5991 28.4514 13.9469 29.983 14.6424 31.3645C15.3379 32.7461 16.2854 33.9763 17.4845 35.0565C18.6837 36.1113 20.0389 37.0031 21.5499 37.7313C23.0609 38.4594 24.6319 39.0121 26.2628 39.3889C27.8937 39.7656 29.4767 39.954 31.0117 39.954C32.9067 39.954 34.6454 39.7026 36.2283 39.2005C37.8113 38.7231 39.0823 37.995 40.0418 37.0155C41.0014 36.036 41.4809 34.8051 41.4809 33.3235C41.4809 32.344 41.2532 31.4399 40.7973 30.6111C40.3656 29.7823 39.8018 29.0035 39.1064 28.2754C38.4347 27.5219 37.7034 26.7938 36.9119 26.0903C36.1446 25.362 35.4127 24.6336 34.7173 23.9053C34.0456 23.1519 33.4823 22.3482 33.0264 21.4942C32.5947 20.6403 32.3788 19.6985 32.3788 18.6688C32.3788 17.4381 32.6908 16.3707 33.3142 15.4666C33.9618 14.5624 34.8252 13.809 35.9045 13.2062C36.9838 12.6034 38.1829 12.1639 39.5022 11.8877C40.8215 11.5863 42.1645 11.4356 43.5316 11.4356C45.0667 11.4356 46.1578 11.6616 46.8054 12.1137C47.453 12.5406 47.7768 13.1434 47.7768 13.922C47.7768 14.4996 47.5969 15.1024 47.2371 15.7303C46.8774 16.3582 46.3855 16.9358 45.7621 17.4632C45.1387 17.9655 44.4192 18.3423 43.6035 18.5934C43.3635 18.6688 43.1836 18.7064 43.0639 18.7064C42.9677 18.7064 42.92 18.6939 42.92 18.6688C42.8958 18.5683 43.1476 18.3674 43.6755 18.066C44.7306 17.413 45.4383 16.7349 45.7981 16.0317C46.1579 15.3033 46.3377 14.688 46.3377 14.1857C46.3377 12.7793 45.1387 12.076 42.7401 12.076C41.685 12.076 40.6416 12.2142 39.6101 12.4904C38.5786 12.7416 37.6432 13.1309 36.8039 13.6583C35.9647 14.1857 35.2929 14.8513 34.7893 15.6549C34.2856 16.4586 34.0338 17.3879 34.0338 18.4427C34.0338 19.372 34.2614 20.2385 34.7173 21.0422C35.1732 21.8208 35.7488 22.5742 36.4442 23.3025C37.1637 24.0058 37.9192 24.709 38.7107 25.4122C39.5264 26.0903 40.2819 26.7938 40.9772 27.5219C41.6968 28.2501 42.2842 29.0412 42.7401 29.8953C43.196 30.7241 43.4236 31.6406 43.4236 32.6454C43.4236 34.3283 42.8362 35.7723 41.6608 36.9778C40.4854 38.1833 38.9024 39.0999 36.9119 39.7279C34.945 40.3807 32.7504 40.7074 30.3282 40.7074ZM49.8988 35.9983C49.0832 35.9983 48.3637 35.8353 47.7403 35.5086C47.1405 35.1819 46.8408 34.5544 46.8408 33.6249C46.8408 32.9468 47.0927 32.1557 47.5963 31.2515C48.1 30.3474 48.7718 29.3932 49.611 28.3884C50.4503 27.3836 51.3497 26.3794 52.3093 25.3746C53.2924 24.3699 54.252 23.4156 55.1874 22.5114C54.8996 22.4612 54.6236 22.3984 54.3599 22.323C54.0963 22.2477 53.8445 22.1849 53.6044 22.1347C52.501 21.8584 51.194 21.5319 49.683 21.1552C48.1961 20.7533 46.589 20.3641 44.8621 19.9873C43.1353 19.5855 41.3724 19.259 39.5736 19.0078C37.7506 18.7316 35.9759 18.5934 34.2491 18.5934C31.9943 18.5934 29.9319 18.9073 28.0611 19.5352C26.1903 20.138 24.7632 21.2431 23.7799 22.8505C23.66 23.0765 23.528 23.1895 23.3841 23.1895C23.2882 23.1895 23.2402 23.089 23.2402 22.8881C23.2402 22.6621 23.3122 22.4361 23.4561 22.21C24.2236 21.0296 25.183 20.1003 26.3342 19.4222C27.4855 18.7441 28.7686 18.2669 30.1837 17.9907C31.5986 17.6893 33.0736 17.5386 34.6088 17.5386C36.1676 17.5386 37.7506 17.6516 39.3577 17.8776C40.9407 18.1037 42.4635 18.3799 43.9267 18.7064C45.4136 19.033 46.7689 19.372 47.9921 19.7236C49.2395 20.0501 50.2946 20.3264 51.158 20.5524C51.7337 20.7282 52.4414 20.9166 53.2806 21.1175C54.1441 21.3184 55.0553 21.5194 56.0149 21.7203L58.3533 19.5729C58.2814 19.4976 58.2454 19.3971 58.2454 19.2715C58.2454 19.0204 58.3893 18.7441 58.6771 18.4427C58.9649 18.1414 59.3365 17.8902 59.7924 17.6893C59.9605 17.6139 60.1999 17.6139 60.5119 17.6893C60.8475 17.7646 61.1595 17.8776 61.4473 18.0283C61.7351 18.179 61.879 18.3423 61.879 18.5181C61.879 18.6688 61.711 18.8697 61.3754 19.1209C61.0634 19.3469 60.8475 19.4976 60.7278 19.5729C60.44 19.7488 60.0324 20.0501 59.5046 20.4771C58.9767 20.904 58.3651 21.4064 57.6698 21.984C58.5574 22.1347 59.4568 22.2602 60.368 22.3607C61.3034 22.4361 62.191 22.4737 63.0303 22.4737C64.3013 22.4737 65.4525 22.3482 66.484 22.097C67.5155 21.8208 68.307 21.3687 68.8585 20.7408C69.4341 20.0878 69.65 19.1962 69.5061 18.066V18.0283C69.5061 17.9028 69.5662 17.84 69.6859 17.84C69.8057 17.84 69.89 17.9028 69.9378 18.0283C69.962 18.179 69.9738 18.3297 69.9738 18.4804C69.9979 18.6311 70.0097 18.7693 70.0097 18.8948C70.0097 20.0752 69.686 21.017 69.0384 21.7203C68.3908 22.3984 67.5392 22.8756 66.484 23.1519C65.4289 23.4281 64.2653 23.5663 62.9943 23.5663C61.9628 23.5663 60.8959 23.4909 59.7924 23.3402C58.7131 23.1895 57.6816 23.0263 56.6984 22.8505C55.7388 23.7044 54.7557 24.6336 53.7483 25.6383C52.741 26.6178 51.8056 27.6096 50.9422 28.6144C50.0787 29.5939 49.371 30.5104 48.8196 31.3645C48.2917 32.2187 48.0281 32.9215 48.0281 33.4742C48.0281 34.027 48.2557 34.4414 48.7116 34.7174C49.1675 34.9935 49.7667 35.1318 50.5105 35.1318C51.6859 35.1318 53.0288 34.8428 54.5398 34.2654C54.7079 34.2153 54.8636 34.1523 55.0075 34.077C55.1756 34.0016 55.3431 33.9263 55.5112 33.851C56.6383 33.3235 57.7417 32.6707 58.821 31.892C59.9245 31.0885 60.9195 30.2973 61.8071 29.5186C62.0707 29.2925 62.3108 29.1042 62.5266 28.9535C62.7425 28.8028 62.9701 28.6021 63.2102 28.3507C63.2579 28.3254 63.3063 28.313 63.3541 28.313C63.426 28.313 63.462 28.3507 63.462 28.4261C63.462 28.5014 63.426 28.6021 63.3541 28.7274C63.2102 28.9282 62.8622 29.3049 62.3108 29.8576C61.7593 30.385 61.0757 30.9878 60.2601 31.6659C59.4444 32.3187 58.5574 32.9592 57.5978 33.5872C56.6624 34.19 55.7152 34.6674 54.7557 35.0188C54.2762 35.1948 53.5685 35.3955 52.6331 35.6216C51.7218 35.8729 50.8101 35.9983 49.8988 35.9983ZM72.0604 35.5462C71.3409 35.5462 70.7051 35.3579 70.1536 34.9811C69.6258 34.6044 69.3622 33.901 69.3622 32.8715C69.3863 32.344 69.4701 31.8043 69.614 31.2515C69.7821 30.6741 69.962 30.1337 70.1536 29.6316C69.8417 30.0083 69.374 30.5104 68.7506 31.1385C68.1271 31.7666 67.4194 32.407 66.6279 33.0598C65.8606 33.6879 65.0691 34.2277 64.2535 34.6798C63.4378 35.1318 62.6705 35.3579 61.951 35.3579C61.2315 35.3579 60.644 35.0818 60.1881 34.5291C59.8762 34.1777 59.7204 33.7126 59.7204 33.1352C59.7204 32.407 59.9605 31.6029 60.44 30.7241C60.9436 29.82 61.6154 28.9282 62.4547 28.0493C63.2939 27.1452 64.2535 26.3164 65.3328 25.5629C66.4363 24.8095 67.5875 24.2192 68.7865 23.7923C70.0817 23.3151 71.2088 23.0765 72.1683 23.0765C73.7991 23.0765 74.6147 23.8048 74.6147 25.2615C74.6147 25.3871 74.6029 25.5252 74.5788 25.6759C74.5788 25.8015 74.567 25.9396 74.5428 26.0903C74.495 26.3917 74.3989 26.6301 74.255 26.8061C74.1352 26.9821 74.0391 27.0698 73.9672 27.0698C73.8474 27.0698 73.8233 26.9315 73.8952 26.6554C73.943 26.5301 73.9672 26.4041 73.9672 26.2787C73.9672 26.128 73.9672 26.0025 73.9672 25.902C73.9672 25.5001 73.871 25.1862 73.6793 24.9601C73.4877 24.709 73.1515 24.5834 72.672 24.5834C72.2403 24.5834 71.7006 24.6839 71.0531 24.8848C70.4297 25.0606 69.7579 25.2992 69.0384 25.6006C68.3188 25.8768 67.6235 26.1908 66.9517 26.5424C66.3042 26.8938 65.7645 27.2458 65.3328 27.5973C64.5891 28.15 63.8937 28.7651 63.2461 29.4432C62.5986 30.1213 62.0589 30.7871 61.6272 31.4399C61.1955 32.068 60.9436 32.6454 60.8717 33.1728C60.8475 33.2482 60.8357 33.3235 60.8357 33.3989C60.8357 33.4742 60.8357 33.5372 60.8357 33.5872C60.8357 34.0393 60.9195 34.3531 61.0876 34.5291C61.2792 34.7051 61.5193 34.7928 61.8071 34.7928C62.2388 34.7928 62.7307 34.6544 63.2821 34.3784C63.8577 34.1023 64.3856 33.788 64.8651 33.4366C65.3446 33.0851 65.6807 32.8214 65.8724 32.6454C66.6397 31.9673 67.5032 31.2262 68.4627 30.4227C69.4223 29.5939 70.2734 28.8281 71.0171 28.1247C71.1368 28.0493 71.2689 28.0117 71.4128 28.0117C71.7484 28.0117 72.0244 28.0994 72.2403 28.2754C72.3122 28.3507 72.3482 28.4514 72.3482 28.5767C72.3482 28.7021 72.3122 28.8658 72.2403 29.0665C72.1925 29.2425 72.1205 29.4432 72.0244 29.6693C71.6169 30.5481 71.2807 31.3392 71.0171 32.0427C70.7534 32.7461 70.6213 33.3359 70.6213 33.8133C70.6213 34.5667 71.0171 34.9435 71.8086 34.9435C72.4084 34.9435 73.2954 34.7174 74.4708 34.2654C75.7418 33.7632 77.0134 33.0722 78.2843 32.1933C79.5553 31.3145 80.7066 30.4227 81.7381 29.5186C82.0017 29.2925 82.2418 29.1042 82.4576 28.9535C82.6735 28.8028 82.9011 28.6021 83.1412 28.3507C83.189 28.3254 83.2491 28.313 83.3211 28.313C83.393 28.313 83.429 28.3507 83.429 28.4261C83.429 28.5014 83.3812 28.6021 83.2851 28.7274C83.1412 28.9282 82.7932 29.3049 82.2418 29.8576C81.6903 30.385 81.0068 30.9878 80.1911 31.6659C79.3754 32.3187 78.4884 32.9592 77.5288 33.5872C76.5934 34.19 75.6462 34.6674 74.6867 35.0188C74.3269 35.1442 73.907 35.2572 73.4275 35.3579C72.9716 35.4833 72.5163 35.5462 72.0604 35.5462ZM86.1143 41.7246C85.035 41.7246 84.2553 41.4485 83.7758 40.8958C83.3199 40.3431 83.0923 39.6402 83.0923 38.7861C83.0923 37.7813 83.3441 36.6264 83.8478 35.3202C84.3756 34.014 85.0592 32.6955 85.8984 31.3645C86.7377 30.0083 87.6371 28.7775 88.5967 27.6726C88.165 27.798 87.7574 27.861 87.3735 27.861C86.4859 27.861 85.7787 27.6226 85.2509 27.1452L84.999 27.5219C84.8309 27.7733 84.5313 28.1247 84.0996 28.5767C83.6921 29.0288 83.284 29.4309 82.8764 29.7823C81.8449 30.6864 80.7538 31.5405 79.6025 32.344C78.4755 33.1475 77.3602 33.8133 76.2567 34.3407C75.1533 34.8681 74.1223 35.1695 73.1627 35.2449C73.0666 35.2449 72.9587 35.2195 72.8389 35.1695C72.7192 35.1442 72.6591 35.1065 72.6591 35.0565C72.6591 34.9811 72.8749 34.8934 73.3066 34.7928C74.1459 34.6168 75.0695 34.253 76.0768 33.7003C77.1084 33.1228 78.1635 32.4447 79.2428 31.6659C80.3462 30.8624 81.4014 30.0336 82.4087 29.1795C82.8163 28.8281 83.248 28.4261 83.7039 27.974C84.1834 27.5219 84.6033 27.1199 84.9631 26.7684C84.6994 26.3917 84.5673 25.9396 84.5673 25.4122C84.5673 24.8346 84.7112 24.2569 84.999 23.6793C85.311 23.0765 85.7067 22.5239 86.1862 22.0217C86.6657 21.5194 87.1694 21.1175 87.6973 20.8161C88.2487 20.4896 88.7524 20.3264 89.2083 20.3264C89.5922 20.3264 89.7839 20.4896 89.7839 20.8161C89.7839 21.0422 89.6878 21.2305 89.4961 21.3812C89.328 21.5319 89.0402 21.8208 88.6327 22.2477C88.2487 22.6496 87.8294 23.1142 87.3735 23.6416C86.9176 24.169 86.51 24.6839 86.1503 25.1862C85.7905 25.6634 85.5628 26.0527 85.4667 26.354C85.5628 26.53 85.6944 26.6931 85.8625 26.8438C86.0305 26.9692 86.3543 27.0322 86.8338 27.0322C87.4572 27.0322 88.0452 26.9068 88.5967 26.6554C89.1723 26.3794 89.7119 26.0652 90.2156 25.7136C90.3595 25.6634 90.4916 25.6383 90.6114 25.6383C91.1392 25.6383 91.5226 25.789 91.7626 26.0903C91.8587 26.241 91.7384 26.5171 91.4028 26.9191C91.0673 27.3212 90.7311 27.7103 90.3955 28.087C89.7001 28.8658 88.9924 29.757 88.2729 30.7618C87.5534 31.7413 86.894 32.7461 86.2942 33.7756C85.6944 34.8051 85.2149 35.7846 84.8551 36.7141C84.4954 37.6436 84.3155 38.447 84.3155 39.1252C84.3155 39.6779 84.4594 40.117 84.7472 40.4437C85.035 40.7704 85.5145 40.9335 86.1862 40.9335C86.4741 40.9335 86.7978 40.8958 87.1576 40.8204C87.781 40.7198 88.4887 40.4814 89.2802 40.1047C90.0717 39.7532 90.8632 39.3388 91.6547 38.8615C92.4462 38.4094 93.1179 37.9826 93.6694 37.5806C93.7171 37.5553 93.7655 37.5429 93.8133 37.5429C93.8852 37.5429 93.9212 37.5929 93.9212 37.6936C93.9212 37.7942 93.8734 37.8696 93.7773 37.9196C93.6092 38.0703 93.2258 38.4094 92.6261 38.9368C92.0504 39.4642 91.3191 39.9916 90.4315 40.5191C89.568 41.0465 88.5967 41.3979 87.5174 41.5739C87.2773 41.5992 87.0379 41.6239 86.7978 41.6492C86.5578 41.6993 86.3302 41.7246 86.1143 41.7246ZM95.1214 35.8099C94.2579 35.8099 93.634 35.5715 93.2506 35.0942C92.8908 34.6168 92.7109 34.077 92.7109 33.4742C92.7109 33.2735 92.7227 33.0851 92.7469 32.9091C92.7705 32.7084 92.8189 32.52 92.8908 32.344C93.0583 31.7913 93.3703 31.1261 93.8262 30.3474C94.3057 29.5686 94.8335 28.8405 95.4092 28.1623C96.0084 27.4589 96.5604 26.9945 97.0641 26.7684C96.7521 26.4418 96.5964 26.0778 96.5964 25.6759C96.5964 25.2992 96.7521 24.9476 97.0641 24.6211C97.3755 24.2695 97.8556 23.9932 98.5032 23.7923C98.8387 23.6667 99.1985 23.5914 99.5825 23.5663C99.99 23.516 100.41 23.4909 100.842 23.4909C101.393 23.4909 101.933 23.5286 102.461 23.6039C103.204 23.7295 103.851 24.0685 104.403 24.6211C104.955 25.1736 105.279 25.8392 105.375 26.6178C105.422 26.9445 105.422 27.2835 105.375 27.6349C105.782 27.6602 106.19 27.6726 106.598 27.6726C107.005 27.6473 107.389 27.6349 107.749 27.6349C108.469 27.6349 109.212 27.5849 109.98 27.4842C110.771 27.3589 111.491 27.2082 112.138 27.0322C112.809 26.8562 113.313 26.6807 113.649 26.5047C113.817 26.4041 113.949 26.354 114.045 26.354C114.141 26.354 114.189 26.3917 114.189 26.4671C114.189 26.6431 113.997 26.8185 113.613 26.9945C113.085 27.2458 112.27 27.5095 111.167 27.7856C110.088 28.037 108.948 28.1877 107.749 28.2377C107.437 28.263 107.066 28.2877 106.634 28.313C106.202 28.313 105.734 28.313 105.231 28.313C104.991 29.3426 104.487 30.3097 103.72 31.2139C102.976 32.118 102.088 32.9215 101.057 33.6249C100.05 34.303 99.0186 34.8305 97.9635 35.2072C96.9078 35.6092 95.9606 35.8099 95.1214 35.8099ZM104.367 27.5596C104.511 27.1328 104.583 26.7308 104.583 26.354C104.583 25.8266 104.379 25.3871 103.972 25.0355C103.588 24.6588 102.892 24.4704 101.885 24.4704C100.925 24.4704 100.074 24.6211 99.3306 24.9225C98.5869 25.2239 98.2153 25.5504 98.2153 25.902C98.2153 26.2034 98.4908 26.4418 99.0428 26.6178C99.8579 26.8938 100.721 27.1075 101.633 27.2582C102.569 27.4089 103.48 27.5095 104.367 27.5596ZM95.0854 35.1318C95.2051 35.1318 95.3249 35.1318 95.4452 35.1318C95.5649 35.1065 95.697 35.0818 95.8409 35.0565C96.3204 34.9558 96.9078 34.7298 97.6032 34.3784C98.3233 34.0016 99.0664 33.5243 99.8343 32.9468C100.626 32.3694 101.357 31.7536 102.029 31.1008C102.389 30.7494 102.748 30.3221 103.108 29.82C103.492 29.3178 103.804 28.8028 104.044 28.2754C103.084 28.2754 102.185 28.2377 101.345 28.1623C100.505 28.087 99.75 27.9616 99.0788 27.7856C99.0546 27.8109 99.0068 27.798 98.9343 27.7479C98.8865 27.7479 98.8505 27.7356 98.8269 27.7103C98.515 27.7103 98.0832 27.9363 97.5318 28.3884C96.9798 28.8405 96.4165 29.4179 95.8409 30.1213C95.2889 30.7994 94.8094 31.5029 94.4018 32.231C94.0179 32.9344 93.8262 33.5496 93.8262 34.077C93.8262 34.7804 94.2456 35.1318 95.0854 35.1318ZM120.923 40.4814C119.868 40.4814 119.113 40.0546 118.657 39.2005C118.201 38.3717 117.973 37.3422 117.973 36.1113C117.973 35.1065 118.093 34.0517 118.333 32.9468C118.597 31.8166 118.933 30.7117 119.34 29.6316C119.028 30.0083 118.561 30.5104 117.937 31.1385C117.314 31.7666 116.606 32.407 115.815 33.0598C115.047 33.6879 114.256 34.2277 113.44 34.6798C112.625 35.1318 111.857 35.3579 111.138 35.3579C110.418 35.3579 109.831 35.0818 109.375 34.5291C109.063 34.1777 108.907 33.7256 108.907 33.1728C108.907 32.4447 109.147 31.6536 109.627 30.7994C110.106 29.9206 110.718 29.0665 111.461 28.2377C112.229 27.3836 113.056 26.6301 113.944 25.9773C114.855 25.2992 115.718 24.822 116.534 24.5457C116.942 24.3951 117.314 24.2946 117.649 24.2444C118.009 24.169 118.321 24.1313 118.585 24.1313C119.472 24.1313 120.084 24.3699 120.42 24.8471C120.779 25.2992 121.031 25.7387 121.175 26.1657V26.2034C121.175 26.354 121.079 26.4671 120.887 26.5424C120.696 26.5924 120.599 26.5424 120.599 26.3917C120.599 26.3164 120.516 26.1405 120.348 25.8643C120.204 25.588 119.82 25.4499 119.196 25.4499C118.597 25.4499 117.925 25.6257 117.182 25.9773C116.438 26.304 115.671 26.7561 114.879 27.3335C114.112 27.8863 113.392 28.5014 112.721 29.1795C112.073 29.8323 111.522 30.4981 111.066 31.1762C110.634 31.829 110.382 32.4194 110.31 32.9468C110.286 33.0222 110.274 33.0975 110.274 33.1728C110.274 33.2482 110.274 33.3235 110.274 33.3989C110.274 34.2277 110.61 34.6421 111.282 34.6421C111.689 34.6421 112.145 34.5167 112.649 34.2654C113.177 34.014 113.656 33.7256 114.088 33.3989C114.544 33.0722 114.867 32.8214 115.059 32.6454C115.826 31.9673 116.69 31.2262 117.649 30.4227C118.609 29.5939 119.46 28.8281 120.204 28.1247C121.043 26.9191 121.955 25.5504 122.938 24.0183C123.921 22.4612 124.964 20.9166 126.068 19.3846C127.195 17.8525 128.359 16.5214 129.558 15.3912C129.917 15.0396 130.265 14.8638 130.601 14.8638C130.793 14.8638 130.937 14.914 131.033 15.0145C131.368 15.2657 131.68 15.5671 131.968 15.9187C132.256 16.2452 132.4 16.5466 132.4 16.8228C132.4 16.9735 132.376 17.074 132.328 17.1242C132.184 17.3 132.088 17.3879 132.04 17.3879C131.992 17.3879 131.956 17.3502 131.932 17.2749C131.932 17.1744 131.92 17.074 131.896 16.9735C131.872 16.7223 131.716 16.5968 131.428 16.5968C131.188 16.5968 130.901 16.6972 130.565 16.8981C130.253 17.0991 130.037 17.2372 129.917 17.3125C129.39 17.7395 128.778 18.3674 128.083 19.1962C127.411 19.9999 126.727 20.8663 126.032 21.7956C125.36 22.6998 124.749 23.5537 124.197 24.3574C122.926 26.3164 121.906 28.137 121.139 29.82C120.372 31.4776 119.82 33.2482 119.484 35.1318C119.436 35.4585 119.388 35.7846 119.34 36.1113C119.316 36.438 119.304 36.7394 119.304 37.0155C119.304 37.819 119.436 38.4724 119.7 38.9745C119.988 39.5019 120.456 39.7656 121.103 39.7656C121.271 39.7656 121.439 39.7532 121.607 39.7279C121.799 39.7026 121.991 39.6526 122.182 39.5772C122.614 39.4265 123.082 39.1628 123.586 38.7861C124.089 38.4094 124.581 37.995 125.061 37.5429C125.54 37.1161 125.936 36.7141 126.248 36.3374C126.296 36.2873 126.332 36.262 126.356 36.262C126.404 36.262 126.44 36.2997 126.464 36.375C126.488 36.4757 126.475 36.551 126.428 36.6011C126.356 36.7265 126.164 37.0278 125.852 37.5052C125.54 37.9826 125.121 38.4724 124.593 38.9745C124.065 39.4766 123.417 39.8663 122.65 40.1423C122.003 40.3684 121.427 40.4814 120.923 40.4814ZM131.325 35.6216C130.774 35.6216 130.246 35.5586 129.742 35.4332C129.263 35.3078 128.818 35.1195 128.411 34.8681C127.883 34.5167 127.487 34.1147 127.224 33.6626C126.984 33.1852 126.864 32.6831 126.864 32.1557C126.864 31.2768 127.152 30.3597 127.727 29.4056C128.303 28.4514 129.058 27.5472 129.994 26.6931C130.953 25.8141 131.961 25.0857 133.016 24.5081C133.639 24.1565 134.263 23.9053 134.887 23.7546C135.51 23.6039 136.062 23.5286 136.542 23.5286C137.333 23.5286 137.849 23.6918 138.089 24.0183C138.352 24.3197 138.484 24.6713 138.484 25.0732C138.484 25.5504 138.34 26.0025 138.053 26.4294C137.789 26.8562 137.393 27.2835 136.865 27.7103C135.93 28.489 134.659 29.1919 133.052 29.82C131.469 30.448 129.826 30.8872 128.123 31.1385C128.003 31.3899 127.895 31.6406 127.799 31.892C127.727 32.1433 127.691 32.3941 127.691 32.6454C127.691 33.1982 127.859 33.6502 128.195 34.0016C128.555 34.3283 128.998 34.5667 129.526 34.7174C130.078 34.8428 130.641 34.9058 131.217 34.9058C131.505 34.9058 131.793 34.8934 132.08 34.8681C132.368 34.8428 132.632 34.8051 132.872 34.7551C134.119 34.479 135.379 34.0016 136.65 33.3235C137.945 32.6454 139.192 31.8667 140.391 30.9878C141.59 30.109 142.669 29.2296 143.629 28.3507C143.677 28.3254 143.737 28.313 143.809 28.313C143.905 28.313 143.953 28.3383 143.953 28.3884C143.953 28.4637 143.905 28.5644 143.809 28.6898C143.641 28.9911 143.293 29.3802 142.766 29.8576C142.262 30.335 141.674 30.8248 141.003 31.3269C140.355 31.829 139.719 32.3064 139.096 32.7584C138.473 33.1852 137.956 33.5243 137.549 33.7756C136.661 34.303 135.666 34.7427 134.563 35.0942C133.459 35.4456 132.38 35.6216 131.325 35.6216ZM128.447 30.4981C128.998 30.3727 129.658 30.209 130.426 30.0083C131.193 29.7823 131.984 29.5186 132.8 29.2172C133.639 28.8905 134.407 28.5391 135.103 28.1623C135.798 27.7603 136.338 27.3335 136.721 26.8815C137.105 26.4547 137.297 26.015 137.297 25.5629C137.297 25.362 137.225 25.1987 137.081 25.0732C136.937 24.9225 136.65 24.8471 136.218 24.8471C135.714 24.8471 135.114 25.0104 134.419 25.3369C133.724 25.6634 132.992 26.1029 132.224 26.6554C131.481 27.2082 130.774 27.8233 130.102 28.5014C129.43 29.1542 128.879 29.82 128.447 30.4981ZM140.566 36.2997C140.302 36.2997 140.17 36.149 140.17 35.8476C140.17 35.4962 140.338 34.9935 140.674 34.3407C141.009 33.6879 141.393 33.0222 141.825 32.344C142.257 31.6659 142.617 31.1132 142.904 30.6864C143.096 30.4104 143.36 30.0336 143.696 29.5562C144.031 29.0789 144.379 28.5644 144.739 28.0117C145.099 27.4342 145.399 26.8691 145.639 26.3164C145.902 25.7638 146.034 25.2741 146.034 24.8471C146.034 24.4202 145.902 24.1062 145.639 23.9053C145.399 23.7044 145.279 23.4909 145.279 23.2649C145.279 23.1644 145.327 23.1142 145.423 23.1142C145.542 23.1142 145.686 23.177 145.854 23.3025C146.022 23.403 146.202 23.5411 146.394 23.7169C146.586 23.8928 146.766 24.0937 146.934 24.3197C147.078 24.4955 147.222 24.6964 147.365 24.9225C147.509 25.1485 147.581 25.4122 147.581 25.7136C147.581 26.0903 147.449 26.5047 147.186 26.9568C146.754 27.7356 146.25 28.4514 145.675 29.1042C145.099 29.757 144.511 30.448 143.912 31.1762C143.264 31.9549 142.676 32.6831 142.149 33.3612C141.645 34.014 141.333 34.4284 141.213 34.6044C141.501 34.253 141.969 33.7503 142.617 33.0975C143.288 32.4194 144.043 31.6783 144.883 30.8748C145.722 30.0713 146.562 29.3049 147.401 28.5767C148.265 27.8486 149.02 27.2582 149.668 26.8061C149.932 26.6301 150.267 26.4671 150.675 26.3164C151.083 26.1405 151.479 26.0527 151.863 26.0527C152.198 26.0527 152.474 26.1657 152.69 26.3917C152.929 26.5924 153.05 26.9692 153.05 27.5219C153.05 27.9993 152.954 28.5514 152.762 29.1795C152.594 29.8076 152.402 30.385 152.186 30.9125C152.018 31.3145 151.886 31.716 151.791 32.118C151.694 32.4947 151.647 32.8461 151.647 33.1728C151.647 33.6502 151.766 34.027 152.006 34.303C152.27 34.5791 152.666 34.7174 153.194 34.7174C153.721 34.7174 154.393 34.5667 155.208 34.2654C156.479 33.7632 157.75 33.0722 159.022 32.1933C160.293 31.3145 161.444 30.4227 162.476 29.5186C162.739 29.2925 162.979 29.1042 163.195 28.9535C163.411 28.8028 163.639 28.6021 163.879 28.3507C163.926 28.3254 163.974 28.313 164.023 28.313C164.095 28.313 164.131 28.3507 164.131 28.4261C164.131 28.5014 164.095 28.6021 164.023 28.7274C163.879 28.9282 163.531 29.3049 162.979 29.8576C162.427 30.385 161.744 30.9878 160.929 31.6659C160.113 32.3187 159.225 32.9592 158.266 33.5872C157.331 34.19 156.383 34.6674 155.424 35.0188C154.993 35.1442 154.537 35.2449 154.057 35.3202C153.601 35.4209 153.158 35.4709 152.726 35.4709C152.006 35.4709 151.382 35.3078 150.855 34.9811C150.327 34.6545 150.064 34.0894 150.064 33.2859C150.064 32.7838 150.183 32.1933 150.423 31.5152C150.591 31.0379 150.771 30.5611 150.963 30.0837C151.179 29.5816 151.323 29.0789 151.395 28.5767C151.418 28.4761 151.431 28.3884 151.431 28.313C151.431 28.2124 151.431 28.1247 151.431 28.0493C151.431 27.4466 151.227 27.1452 150.819 27.1452C150.555 27.1452 150.231 27.2582 149.848 27.4842C149.488 27.685 149.164 27.8863 148.876 28.087C148.612 28.263 148.181 28.6268 147.581 29.1795C147.006 29.7069 146.382 30.2973 145.711 30.9501C145.039 31.6029 144.403 32.231 143.804 32.8338C143.3 33.3359 142.82 33.8633 142.365 34.416C141.909 34.9435 141.525 35.3832 141.213 35.7346C140.902 36.1113 140.686 36.2997 140.566 36.2997ZM162.411 35.4332C161.739 35.4332 161.152 35.3078 160.648 35.0565C160.144 34.7804 159.893 34.2907 159.893 33.5872C159.893 32.8085 160.084 32.055 160.468 31.3269C160.876 30.5987 161.332 29.9453 161.835 29.3679C162.339 28.7651 162.758 28.313 163.095 28.0117C162.879 27.9616 162.915 27.7356 163.202 27.3335C163.49 26.9315 163.91 26.6054 164.462 26.354C164.606 26.304 164.737 26.2787 164.857 26.2787C165.121 26.2787 165.385 26.3417 165.649 26.4671C165.937 26.5924 166.081 26.7685 166.081 26.9945C166.081 27.1199 166.032 27.2458 165.937 27.3712C165.841 27.4966 165.744 27.5973 165.649 27.6726C165.265 27.974 164.725 28.4514 164.03 29.1042C163.358 29.7322 162.783 30.3597 162.303 30.9878C161.415 32.168 160.972 33.0851 160.972 33.7379C160.972 34.4414 161.512 34.7928 162.591 34.7928C163.478 34.7928 164.341 34.6544 165.181 34.3784C166.045 34.077 166.848 33.7256 167.592 33.3235C168.766 32.6955 169.858 31.942 170.865 31.0632C171.873 30.159 172.916 29.2549 173.995 28.3507C174.043 28.3254 174.103 28.313 174.175 28.313C174.247 28.313 174.283 28.3507 174.283 28.4261C174.283 28.5014 174.235 28.6021 174.139 28.7274C173.995 28.9282 173.695 29.2672 173.239 29.7446C172.784 30.1967 172.208 30.7117 171.513 31.2892C170.841 31.8667 170.086 32.4447 169.247 33.0222C168.431 33.5749 167.592 34.0517 166.728 34.4537C166.272 34.6544 165.625 34.8681 164.785 35.0942C163.97 35.3202 163.178 35.4332 162.411 35.4332ZM164.678 24.2444C164.581 24.2444 164.534 24.2192 164.534 24.169C164.534 24.0937 164.737 23.9304 165.145 23.6793C165.769 23.3277 166.368 22.9383 166.944 22.5114C167.52 22.0845 167.999 21.7077 168.383 21.3812C168.623 21.3561 168.851 21.4566 169.067 21.6826C169.306 21.8835 169.402 22.0342 169.354 22.1347C169.067 22.3105 168.695 22.5114 168.239 22.7374C167.783 22.9635 167.316 23.1895 166.836 23.4156C166.356 23.6416 165.937 23.8425 165.577 24.0183C165.457 24.0685 165.301 24.1188 165.109 24.169C164.917 24.2192 164.773 24.2444 164.678 24.2444ZM182.542 35.7723C181.462 35.7723 180.55 35.4709 179.807 34.8681C179.088 34.24 178.56 33.4489 178.224 32.4947C177.888 31.5152 177.732 30.5104 177.757 29.4809C176.869 30.2344 176.042 31.0131 175.274 31.8166C174.531 32.6201 173.847 33.4112 173.224 34.19L173.332 34.5667C173.379 34.6674 173.404 34.8051 173.404 34.9811C173.404 35.2325 173.307 35.4209 173.116 35.5462C172.948 35.6716 172.756 35.7346 172.54 35.7346C172.372 35.7346 172.216 35.6969 172.072 35.6216C171.928 35.5715 171.832 35.4709 171.785 35.3202C171.641 34.9688 171.569 34.5921 171.569 34.19C171.569 33.2358 171.821 32.1557 172.324 30.9501C172.851 29.7446 173.415 28.5644 174.015 27.4089C173.943 27.4342 173.859 27.4466 173.763 27.4466C173.571 27.4466 173.475 27.3965 173.475 27.2959C173.475 27.1952 173.547 27.0951 173.691 26.9945C174.219 26.6678 174.542 26.3794 174.663 26.128C175.094 25.1987 175.658 24.1313 176.354 22.9258C177.073 21.7203 177.888 20.4645 178.8 19.1585C179.735 17.8274 180.73 16.5466 181.786 15.3159C182.865 14.0601 183.968 12.93 185.096 11.9253C186.223 10.9207 187.35 10.117 188.478 9.51426C189.605 8.91149 190.684 8.61011 191.716 8.61011C192.531 8.61011 193.094 8.78593 193.406 9.13753C193.718 9.48912 193.874 9.91612 193.874 10.4184C193.874 10.77 193.802 11.1342 193.658 11.5109C193.538 11.8877 193.382 12.2392 193.191 12.5658C192.543 13.6708 191.68 14.7885 190.6 15.9187C189.545 17.0237 188.37 18.1037 187.075 19.1585C185.803 20.1882 184.484 21.1552 183.117 22.0593C181.774 22.9635 180.479 23.7798 179.232 24.5081C178.008 25.2113 176.929 25.8015 175.994 26.2787C175.514 27.2329 174.998 28.313 174.447 29.5186C173.895 30.7241 173.523 31.8043 173.332 32.7584C173.811 32.2057 174.447 31.5653 175.238 30.8371C176.03 30.0837 176.893 29.3178 177.829 28.5391C177.901 27.9616 178.02 27.4719 178.188 27.0698C178.332 26.6431 178.488 26.3417 178.656 26.1657C178.824 25.9899 178.992 25.902 179.16 25.902C179.351 25.902 179.52 26.0025 179.663 26.2034C179.807 26.3794 179.903 26.5801 179.951 26.8061C181.006 25.9773 182.05 25.2239 183.081 24.5457C184.136 23.8425 185.096 23.2774 185.959 22.8505C186.846 22.4235 187.554 22.21 188.082 22.21C188.753 22.21 189.089 22.4737 189.089 23.0012C189.089 23.2523 188.969 23.516 188.73 23.7923C188.489 24.0435 188.141 24.2067 187.686 24.282C186.367 24.4829 185.024 24.9099 183.657 25.5629C182.313 26.1908 181.018 26.9568 179.771 27.861C179.435 28.7151 179.268 29.6063 179.268 30.5357C179.268 31.2639 179.387 31.9673 179.627 32.6454C179.867 33.2982 180.239 33.8386 180.743 34.2654C181.27 34.6674 181.954 34.8681 182.793 34.8681C183.608 34.8681 184.484 34.6921 185.419 34.3407C186.355 33.9893 187.29 33.5496 188.226 33.0222C189.185 32.4694 190.084 31.8796 190.924 31.2515C191.788 30.6234 192.531 30.046 193.155 29.5186C193.418 29.2925 193.658 29.1042 193.874 28.9535C194.114 28.8028 194.354 28.6021 194.594 28.3507C194.641 28.3254 194.702 28.313 194.774 28.313C194.846 28.313 194.882 28.3507 194.882 28.4261C194.882 28.5014 194.833 28.6021 194.738 28.7274C194.594 28.9034 194.27 29.2295 193.766 29.7069C193.263 30.1843 192.639 30.7241 191.895 31.3269C191.176 31.9296 190.384 32.52 189.521 33.0975C188.681 33.675 187.83 34.1776 186.967 34.6044C186.487 34.8558 185.827 35.1065 184.988 35.3579C184.172 35.6339 183.357 35.7723 182.542 35.7723ZM176.426 25.3746C177.816 24.5709 179.255 23.7169 180.743 22.8128C182.23 21.8835 183.68 20.8915 185.096 19.8366C186.535 18.7818 187.866 17.6265 189.089 16.3707C190.312 15.115 191.343 13.7588 192.183 12.3021C192.303 12.1012 192.471 11.7872 192.687 11.3602C192.903 10.9333 193.011 10.544 193.011 10.1924C193.011 10.0165 192.951 9.86585 192.831 9.74029C192.735 9.5896 192.543 9.51426 192.255 9.51426C191.799 9.51426 191.188 9.70262 190.42 10.0794C189.653 10.4309 188.837 10.9082 187.974 11.5109C187.111 12.0886 186.283 12.7039 185.492 13.3569C184.724 14.0099 184.089 14.6378 183.585 15.2405C182.961 15.994 182.29 16.8228 181.57 17.727C180.851 18.606 180.143 19.5101 179.448 20.4394C178.776 21.3687 178.164 22.2602 177.613 23.1142C177.085 23.9681 176.689 24.7216 176.426 25.3746ZM182.372 53.7799C181.653 53.7799 180.982 53.6545 180.358 53.4032C179.71 53.1772 179.183 52.8257 178.775 52.3484C178.367 51.8963 178.163 51.3565 178.163 50.7284C178.163 49.5482 178.463 48.4557 179.062 47.4509C179.662 46.4714 180.442 45.5672 181.401 44.7384C182.361 43.9096 183.416 43.1685 184.567 42.5157C185.695 41.8629 186.81 41.2725 187.913 40.7451C189.016 40.2177 189.988 39.7532 190.827 39.3512C191.379 39.0751 192.074 38.7737 192.914 38.4471C193.777 38.1204 194.7 37.7813 195.684 37.4299C196.667 37.0785 197.639 36.7394 198.598 36.4127C199.557 36.1113 200.421 35.8476 201.189 35.6216C201.572 34.8934 201.908 34.027 202.196 33.0222C202.484 31.9926 202.628 31.0885 202.628 30.3097C202.628 29.9583 202.592 29.6569 202.52 29.4056C202.448 29.1295 202.328 28.9411 202.16 28.8405L201.944 29.0665C201.584 29.4179 201.093 29.933 200.469 30.6111C199.845 31.2892 199.15 31.9926 198.382 32.7208C197.639 33.4242 196.871 34.027 196.08 34.5291C195.312 35.0065 194.605 35.2449 193.957 35.2449C193.333 35.2449 192.818 34.9558 192.41 34.3784C192.17 34.027 192.051 33.6126 192.051 33.1352C192.051 32.3317 192.326 31.4652 192.878 30.5357C193.454 29.6063 194.149 28.7151 194.965 27.861C195.012 27.7856 195.145 27.6226 195.36 27.3712C195.576 27.1199 195.792 26.8691 196.008 26.6178C196.247 26.3664 196.416 26.2034 196.512 26.128C196.416 26.0527 196.463 25.8643 196.656 25.5629C196.847 25.2615 197.099 24.9853 197.411 24.7341C197.747 24.4829 198.034 24.4327 198.275 24.5834C198.49 24.709 198.67 24.8471 198.814 24.9978C198.982 25.1234 199.066 25.2615 199.066 25.4122C199.066 25.5629 198.958 25.7513 198.742 25.9773L197.987 26.7308C197.531 27.2082 197.015 27.7479 196.439 28.3507C195.888 28.9535 195.36 29.5686 194.857 30.1967C194.353 30.7994 193.933 31.3769 193.598 31.9296C193.261 32.4571 193.07 32.8968 193.022 33.2482C192.998 33.3488 192.986 33.4366 192.986 33.5119C192.986 33.5872 192.986 33.6626 192.986 33.7379C192.986 34.4661 193.25 34.8305 193.777 34.8305C194.161 34.8305 194.605 34.6798 195.109 34.3784C195.636 34.0517 196.128 33.7003 196.584 33.3235C197.063 32.9468 197.399 32.6707 197.591 32.4947C198.31 31.8419 199.006 31.1638 199.678 30.4604C200.373 29.757 201.057 29.0918 201.728 28.4637C201.704 28.313 201.752 28.1623 201.872 28.0117C202.016 27.8357 202.28 27.7226 202.664 27.6726C203.191 27.6226 203.599 27.8109 203.887 28.2377C204.175 28.6397 204.319 29.2425 204.319 30.046C204.319 30.6741 204.222 31.3899 204.031 32.1933C203.839 32.9968 203.527 33.8763 203.095 34.8305C204.87 34.027 206.525 33.1728 208.06 32.2687C209.595 31.3645 211.046 30.2597 212.413 28.9535C212.605 28.7775 212.845 28.5391 213.133 28.2377C213.421 27.911 213.684 27.6349 213.924 27.4089C214.188 27.1575 214.356 27.0445 214.428 27.0698C214.548 27.0951 214.524 27.2582 214.356 27.5596C214.188 27.8357 213.756 28.3507 213.061 29.1042C211.742 30.5104 210.255 31.7289 208.6 32.7584C206.945 33.7633 204.966 34.7551 202.664 35.7346C201.464 38.1957 200.061 40.5067 198.454 42.6664C196.871 44.8514 195.168 46.7728 193.346 48.4304C191.523 50.1133 189.676 51.4189 187.805 52.3484C185.934 53.3025 184.123 53.7799 182.372 53.7799ZM181.725 52.9511C182.756 52.9511 183.968 52.6874 185.358 52.16C186.725 51.6326 188.117 50.9044 189.532 49.975C190.971 49.0455 192.278 47.9659 193.454 46.7351C194.005 46.1576 194.653 45.4042 195.396 44.4747C196.14 43.5706 196.883 42.6034 197.627 41.5739C198.37 40.5444 199.03 39.5772 199.606 38.6731C200.205 37.7689 200.625 37.0532 200.865 36.5257C199.114 36.9525 197.255 37.5429 195.288 38.2964C193.346 39.0498 191.427 39.9039 189.532 40.8581C187.661 41.8376 185.958 42.8671 184.423 43.9473C182.864 45.0522 181.605 46.1576 180.645 47.2625C179.686 48.3927 179.159 49.4729 179.062 50.5024C179.015 51.3565 179.242 51.9716 179.746 52.3484C180.226 52.7504 180.885 52.9511 181.725 52.9511Z" fill="black"/>
</g>
<defs>
<clipPath id="clip0_77_58">
<rect width="224" height="69" fill="white"/>
</clipPath>
</defs>
</svg>
