<svg width="424" height="156" viewBox="0 0 424 156" fill="none" xmlns="http://www.w3.org/2000/svg">
<g clip-path="url(#clip0_77_106)">
<path d="M86.3693 77.5474C83.811 77.5474 81.198 77.2731 78.53 76.7245C75.8986 76.2128 73.3769 75.426 70.9648 74.3657C68.5893 73.3414 66.4513 72.0437 64.5509 70.4708C62.687 68.9348 61.2068 67.1614 60.1104 65.1497C59.014 63.102 58.4658 60.834 58.4658 58.3474C58.4658 56.6648 58.7582 55.0194 59.3429 53.4103C59.9642 51.8011 60.8597 50.3565 62.0291 49.0765C63.1986 47.76 64.6239 46.7177 66.3051 45.9497C67.9863 45.1817 69.9232 44.7977 72.1161 44.7977L72.8835 45.4011C70.1059 45.4011 67.8218 45.9497 66.031 47.0468C64.2768 48.144 62.9793 49.6069 62.1388 51.4354C61.2982 53.2274 60.8779 55.1657 60.8779 57.2503C60.8779 59.7008 61.4079 61.9311 62.4677 63.9428C63.5275 65.9545 64.9712 67.746 66.7985 69.3188C68.6258 70.8548 70.6907 72.1534 72.9932 73.2137C75.2956 74.274 77.6895 75.0788 80.1746 75.6274C82.6598 76.176 85.0719 76.4503 87.4109 76.4503C90.2984 76.4503 92.9477 76.0843 95.3598 75.3531C97.7719 74.658 99.7086 73.5977 101.171 72.1714C102.633 70.7451 103.364 68.9528 103.364 66.7954C103.364 65.3691 103.017 64.0525 102.322 62.8457C101.664 61.6388 100.805 60.5048 99.7454 59.4445C98.7218 58.3474 97.6074 57.2871 96.4014 56.2628C95.2322 55.2023 94.1169 54.1417 93.0574 53.0811C92.0338 51.984 91.1755 50.8137 90.4808 49.5703C89.823 48.3268 89.4941 46.9554 89.4941 45.456C89.4941 43.6639 89.9694 42.1097 90.9194 40.7931C91.9061 39.4765 93.2218 38.3794 94.8664 37.5017C96.511 36.624 98.3381 35.9839 100.348 35.5817C102.359 35.1428 104.405 34.9234 106.488 34.9234C108.828 34.9234 110.49 35.2525 111.477 35.9108C112.464 36.5325 112.957 37.4102 112.957 38.544C112.957 39.3851 112.683 40.2628 112.135 41.1771C111.587 42.0914 110.837 42.9325 109.887 43.7005C108.937 44.4319 107.841 44.9805 106.598 45.3463C106.232 45.456 105.958 45.5108 105.776 45.5108C105.629 45.5108 105.556 45.4926 105.556 45.456C105.52 45.3097 105.903 45.0171 106.708 44.5783C108.315 43.6274 109.394 42.64 109.942 41.616C110.49 40.5554 110.764 39.6594 110.764 38.928C110.764 36.88 108.937 35.856 105.282 35.856C103.675 35.856 102.085 36.0571 100.513 36.4594C98.9411 36.8251 97.5158 37.392 96.2369 38.16C94.9581 38.928 93.9345 39.8971 93.167 41.0674C92.3995 42.2377 92.0158 43.5908 92.0158 45.1268C92.0158 46.48 92.3627 47.7417 93.0574 48.912C93.752 50.0457 94.6292 51.1429 95.6887 52.2034C96.7851 53.2274 97.9364 54.2514 99.1424 55.2754C100.385 56.2628 101.537 57.2871 102.596 58.3474C103.692 59.4077 104.588 60.5597 105.282 61.8034C105.977 63.0103 106.324 64.3448 106.324 65.808C106.324 68.2585 105.429 70.3611 103.638 72.1165C101.847 73.872 99.4345 75.2065 96.4014 76.1211C93.4043 77.0717 90.0602 77.5474 86.3693 77.5474ZM116.191 70.6903C114.948 70.6903 113.851 70.4528 112.901 69.9771C111.987 69.5014 111.531 68.5877 111.531 67.2343C111.531 66.2468 111.915 65.0948 112.682 63.7783C113.45 62.4617 114.473 61.0723 115.752 59.6091C117.031 58.146 118.401 56.6837 119.864 55.2205C121.362 53.7577 122.824 52.368 124.249 51.0514C123.811 50.9783 123.39 50.8868 122.988 50.7771C122.587 50.6674 122.203 50.5759 121.837 50.5028C120.156 50.1006 118.164 49.6251 115.862 49.0765C113.596 48.4914 111.147 47.9245 108.516 47.376C105.884 46.7908 103.198 46.3154 100.457 45.9497C97.6794 45.5474 94.9752 45.3463 92.3438 45.3463C88.9082 45.3463 85.7654 45.8034 82.9148 46.7177C80.0641 47.5954 77.8896 49.2045 76.3912 51.5451C76.2085 51.8743 76.0074 52.0388 75.7881 52.0388C75.6419 52.0388 75.5689 51.8925 75.5689 51.6C75.5689 51.2708 75.6785 50.9417 75.8978 50.6125C77.0673 48.8937 78.5292 47.5405 80.2834 46.5531C82.0377 45.5657 83.9929 44.8708 86.1492 44.4685C88.3051 44.0297 90.5528 43.8103 92.8921 43.8103C95.2673 43.8103 97.6794 43.9748 100.128 44.304C102.54 44.6331 104.861 45.0354 107.09 45.5108C109.356 45.9863 111.421 46.48 113.285 46.992C115.186 47.4674 116.794 47.8697 118.109 48.1988C118.986 48.4549 120.065 48.7291 121.344 49.0217C122.659 49.3142 124.048 49.6069 125.51 49.8994L129.073 46.7725C128.964 46.6628 128.909 46.5165 128.909 46.3337C128.909 45.9679 129.128 45.5657 129.567 45.1268C130.005 44.688 130.572 44.3222 131.266 44.0297C131.522 43.92 131.887 43.92 132.363 44.0297C132.874 44.1394 133.349 44.304 133.788 44.5234C134.226 44.7428 134.446 44.9805 134.446 45.2365C134.446 45.456 134.19 45.7485 133.678 46.1143C133.203 46.4434 132.874 46.6628 132.692 46.7725C132.253 47.0286 131.632 47.4674 130.828 48.0891C130.023 48.7108 129.091 49.4423 128.032 50.2834C129.384 50.5028 130.755 50.6857 132.143 50.832C133.569 50.9417 134.921 50.9965 136.2 50.9965C138.137 50.9965 139.891 50.8137 141.463 50.448C143.035 50.0457 144.241 49.3874 145.081 48.4731C145.958 47.5223 146.287 46.224 146.068 44.5783V44.5234C146.068 44.3406 146.159 44.2491 146.342 44.2491C146.524 44.2491 146.653 44.3406 146.725 44.5234C146.762 44.7428 146.78 44.9623 146.78 45.1817C146.817 45.4011 146.835 45.6023 146.835 45.7851C146.835 47.5039 146.342 48.8754 145.355 49.8994C144.368 50.8868 143.071 51.5817 141.463 51.984C139.855 52.3862 138.082 52.5874 136.145 52.5874C134.573 52.5874 132.948 52.4777 131.266 52.2583C129.622 52.0388 128.05 51.8011 126.552 51.5451C125.089 52.7886 123.591 54.1417 122.056 55.6045C120.521 57.0308 119.096 58.4751 117.78 59.9383C116.465 61.3645 115.386 62.6991 114.546 63.9428C113.742 65.1865 113.34 66.21 113.34 67.0148C113.34 67.8197 113.687 68.4231 114.382 68.8251C115.076 69.2271 115.989 69.4285 117.123 69.4285C118.914 69.4285 120.96 69.0077 123.262 68.1668C123.519 68.094 123.756 68.0023 123.975 67.8925C124.231 67.7828 124.486 67.6731 124.743 67.5634C126.46 66.7954 128.141 65.8448 129.786 64.7108C131.467 63.5408 132.984 62.3888 134.336 61.2548C134.738 60.9257 135.104 60.6514 135.433 60.432C135.761 60.2125 136.108 59.9203 136.474 59.5543C136.547 59.5174 136.621 59.4994 136.693 59.4994C136.803 59.4994 136.858 59.5543 136.858 59.664C136.858 59.7737 136.803 59.9203 136.693 60.1028C136.474 60.3951 135.944 60.9437 135.104 61.7485C134.263 62.5165 133.222 63.3943 131.979 64.3817C130.736 65.3323 129.384 66.2648 127.922 67.1794C126.497 68.0571 125.054 68.7523 123.591 69.264C122.861 69.5203 121.782 69.8125 120.357 70.1417C118.968 70.5077 117.579 70.6903 116.191 70.6903ZM149.96 70.032C148.863 70.032 147.895 69.7577 147.054 69.2091C146.25 68.6605 145.848 67.6363 145.848 66.1371C145.885 65.3691 146.013 64.5831 146.232 63.7783C146.488 62.9374 146.762 62.1505 147.054 61.4194C146.579 61.968 145.866 62.6991 144.916 63.6137C143.966 64.5283 142.888 65.4608 141.682 66.4114C140.513 67.326 139.307 68.112 138.064 68.7703C136.821 69.4285 135.652 69.7577 134.555 69.7577C133.459 69.7577 132.564 69.3557 131.869 68.5508C131.394 68.0391 131.157 67.362 131.157 66.5211C131.157 65.4608 131.522 64.29 132.253 63.0103C133.02 61.6937 134.044 60.3951 135.323 59.1154C136.602 57.7988 138.064 56.592 139.709 55.4948C141.39 54.3977 143.144 53.5382 144.971 52.9165C146.945 52.2217 148.662 51.8743 150.124 51.8743C152.609 51.8743 153.852 52.9348 153.852 55.056C153.852 55.2388 153.834 55.44 153.797 55.6594C153.797 55.8422 153.779 56.0434 153.742 56.2628C153.67 56.7017 153.523 57.0488 153.304 57.3051C153.121 57.5614 152.975 57.6891 152.865 57.6891C152.683 57.6891 152.646 57.4877 152.756 57.0857C152.829 56.9031 152.865 56.7197 152.865 56.5371C152.865 56.3177 152.865 56.1349 152.865 55.9885C152.865 55.4034 152.719 54.9463 152.427 54.6171C152.135 54.2514 151.622 54.0685 150.892 54.0685C150.234 54.0685 149.412 54.2149 148.425 54.5074C147.475 54.7634 146.451 55.1108 145.355 55.5497C144.259 55.9519 143.199 56.4091 142.175 56.9211C141.189 57.4328 140.366 57.9454 139.709 58.4571C138.575 59.262 137.516 60.1577 136.529 61.1451C135.542 62.1325 134.72 63.102 134.062 64.0525C133.404 64.9671 133.02 65.808 132.911 66.576C132.874 66.6857 132.856 66.7954 132.856 66.9051C132.856 67.0148 132.856 67.1065 132.856 67.1794C132.856 67.8377 132.984 68.2945 133.24 68.5508C133.532 68.8071 133.898 68.9348 134.336 68.9348C134.994 68.9348 135.743 68.7334 136.584 68.3314C137.461 67.9294 138.265 67.4717 138.996 66.96C139.726 66.4483 140.239 66.0643 140.531 65.808C141.7 64.8205 143.016 63.7414 144.478 62.5714C145.94 61.3645 147.237 60.2494 148.37 59.2251C148.553 59.1154 148.754 59.0605 148.973 59.0605C149.484 59.0605 149.905 59.1883 150.234 59.4445C150.344 59.5543 150.398 59.7008 150.398 59.8834C150.398 60.066 150.344 60.3043 150.234 60.5965C150.161 60.8528 150.052 61.1451 149.905 61.4743C149.284 62.754 148.772 63.906 148.37 64.9303C147.968 65.9545 147.767 66.8134 147.767 67.5085C147.767 68.6057 148.37 69.1543 149.576 69.1543C150.49 69.1543 151.842 68.8251 153.633 68.1668C155.57 67.4357 157.507 66.4294 159.444 65.1497C161.38 63.87 163.135 62.5714 164.707 61.2548C165.108 60.9257 165.474 60.6514 165.803 60.432C166.132 60.2125 166.479 59.9203 166.845 59.5543C166.917 59.5174 167.009 59.4994 167.119 59.4994C167.228 59.4994 167.283 59.5543 167.283 59.664C167.283 59.7737 167.21 59.9203 167.064 60.1028C166.845 60.3951 166.314 60.9437 165.474 61.7485C164.634 62.5165 163.592 63.3943 162.349 64.3817C161.106 65.3323 159.755 66.2648 158.293 67.1794C156.867 68.0571 155.424 68.7523 153.962 69.264C153.414 69.4465 152.774 69.6111 152.043 69.7577C151.348 69.9403 150.655 70.032 149.96 70.032ZM171.375 79.0285C169.73 79.0285 168.542 78.6265 167.812 77.8217C167.117 77.0168 166.77 75.9934 166.77 74.7497C166.77 73.2865 167.154 71.6048 167.921 69.7028C168.726 67.8008 169.767 65.8808 171.046 63.9428C172.325 61.968 173.695 60.1757 175.157 58.5668C174.5 58.7494 173.879 58.8411 173.294 58.8411C171.941 58.8411 170.864 58.494 170.059 57.7988L169.675 58.3474C169.419 58.7134 168.963 59.2251 168.305 59.8834C167.684 60.5417 167.062 61.1271 166.441 61.6388C164.869 62.9554 163.207 64.1991 161.452 65.3691C159.735 66.5391 158.036 67.5085 156.354 68.2765C154.673 69.0445 153.102 69.4834 151.64 69.5931C151.493 69.5931 151.329 69.5563 151.146 69.4834C150.964 69.4465 150.872 69.3917 150.872 69.3188C150.872 69.2091 151.201 69.0814 151.859 68.9348C153.138 68.6785 154.545 68.1488 156.08 67.344C157.652 66.5031 159.26 65.5157 160.904 64.3817C162.586 63.2117 164.193 62.0048 165.728 60.7611C166.349 60.2494 167.007 59.664 167.702 59.0057C168.433 58.3474 169.072 57.762 169.621 57.2503C169.219 56.7017 169.018 56.0434 169.018 55.2754C169.018 54.4343 169.237 53.5931 169.675 52.752C170.151 51.8743 170.754 51.0697 171.485 50.3383C172.215 49.6069 172.983 49.0217 173.787 48.5828C174.627 48.1074 175.395 47.8697 176.089 47.8697C176.674 47.8697 176.967 48.1074 176.967 48.5828C176.967 48.912 176.82 49.1863 176.528 49.4057C176.272 49.6251 175.833 50.0457 175.212 50.6674C174.627 51.2526 173.988 51.9291 173.294 52.6971C172.599 53.4651 171.978 54.2149 171.43 54.9463C170.882 55.6411 170.535 56.208 170.388 56.6468C170.535 56.9031 170.735 57.1405 170.991 57.36C171.247 57.5425 171.741 57.6343 172.471 57.6343C173.421 57.6343 174.317 57.4517 175.157 57.0857C176.035 56.6837 176.857 56.2262 177.624 55.7143C177.844 55.6411 178.045 55.6045 178.227 55.6045C179.032 55.6045 179.616 55.824 179.982 56.2628C180.128 56.4823 179.945 56.8843 179.433 57.4697C178.922 58.0551 178.41 58.6217 177.898 59.1703C176.839 60.3043 175.76 61.602 174.664 63.0651C173.568 64.4914 172.563 65.9545 171.649 67.4537C170.735 68.9528 170.004 70.3791 169.456 71.7325C168.908 73.086 168.634 74.256 168.634 75.2434C168.634 76.0482 168.853 76.6877 169.292 77.1634C169.73 77.6391 170.461 77.8765 171.485 77.8765C171.923 77.8765 172.416 77.8217 172.965 77.712C173.915 77.5654 174.993 77.2183 176.199 76.6697C177.405 76.158 178.611 75.5545 179.817 74.8594C181.023 74.2011 182.047 73.5797 182.887 72.9943C182.96 72.9574 183.034 72.9394 183.106 72.9394C183.216 72.9394 183.271 73.0122 183.271 73.1588C183.271 73.3054 183.198 73.4151 183.052 73.488C182.795 73.7074 182.211 74.2011 181.297 74.9691C180.42 75.7371 179.306 76.5051 177.953 77.2731C176.638 78.0411 175.157 78.5528 173.513 78.8091C173.147 78.846 172.782 78.882 172.416 78.9188C172.051 78.9917 171.704 79.0285 171.375 79.0285ZM185.1 70.416C183.784 70.416 182.833 70.0688 182.249 69.3737C181.701 68.6785 181.427 67.8925 181.427 67.0148C181.427 66.7225 181.445 66.4483 181.481 66.192C181.517 65.8997 181.591 65.6254 181.701 65.3691C181.956 64.5643 182.431 63.5957 183.126 62.4617C183.857 61.3277 184.661 60.2674 185.538 59.28C186.451 58.2557 187.292 57.5794 188.06 57.2503C187.585 56.7745 187.347 56.2446 187.347 55.6594C187.347 55.1108 187.585 54.5989 188.06 54.1234C188.534 53.6114 189.266 53.2091 190.253 52.9165C190.764 52.7337 191.312 52.624 191.897 52.5874C192.518 52.5143 193.158 52.4777 193.816 52.4777C194.656 52.4777 195.479 52.5325 196.283 52.6423C197.415 52.8251 198.402 53.3188 199.243 54.1234C200.084 54.928 200.577 55.8971 200.723 57.0308C200.796 57.5065 200.796 58.0003 200.723 58.512C201.344 58.5488 201.965 58.5668 202.587 58.5668C203.208 58.53 203.793 58.512 204.342 58.512C205.438 58.512 206.57 58.4391 207.74 58.2925C208.946 58.11 210.043 57.8905 211.03 57.6343C212.052 57.378 212.82 57.1225 213.332 56.8663C213.587 56.7197 213.789 56.6468 213.935 56.6468C214.081 56.6468 214.154 56.7017 214.154 56.8114C214.154 57.0677 213.861 57.3231 213.277 57.5794C212.473 57.9454 211.23 58.3294 209.549 58.7314C207.905 59.0974 206.169 59.3168 204.342 59.3897C203.866 59.4265 203.3 59.4625 202.642 59.4994C201.984 59.4994 201.272 59.4994 200.504 59.4994C200.138 60.9985 199.371 62.4068 198.202 63.7234C197.068 65.04 195.716 66.21 194.145 67.2343C192.61 68.2217 191.038 68.9897 189.43 69.5382C187.822 70.1237 186.378 70.416 185.1 70.416ZM199.188 58.4023C199.408 57.7808 199.517 57.1954 199.517 56.6468C199.517 55.8788 199.206 55.2388 198.585 54.7268C198 54.1783 196.941 53.904 195.406 53.904C193.944 53.904 192.646 54.1234 191.514 54.5623C190.38 55.0011 189.814 55.4766 189.814 55.9885C189.814 56.4274 190.234 56.7745 191.075 57.0308C192.317 57.4328 193.633 57.744 195.022 57.9634C196.447 58.1828 197.836 58.3294 199.188 58.4023ZM185.045 69.4285C185.227 69.4285 185.41 69.4285 185.593 69.4285C185.775 69.3917 185.977 69.3557 186.196 69.3188C186.927 69.1723 187.822 68.8431 188.881 68.3314C189.979 67.7828 191.111 67.0877 192.281 66.2468C193.487 65.406 194.602 64.5094 195.625 63.5588C196.173 63.0471 196.722 62.4248 197.27 61.6937C197.854 60.9625 198.329 60.2125 198.695 59.4445C197.233 59.4445 195.862 59.3897 194.584 59.28C193.304 59.1703 192.153 58.9877 191.13 58.7314C191.093 58.7683 191.02 58.7494 190.91 58.6765C190.837 58.6765 190.782 58.6585 190.746 58.6217C190.271 58.6217 189.613 58.9508 188.773 59.6091C187.931 60.2674 187.073 61.1083 186.196 62.1325C185.355 63.12 184.624 64.1443 184.003 65.2045C183.418 66.2288 183.126 67.1245 183.126 67.8925C183.126 68.9168 183.765 69.4285 185.045 69.4285ZM224.416 77.2183C222.808 77.2183 221.657 76.5968 220.962 75.3531C220.268 74.1463 219.921 72.6471 219.921 70.8548C219.921 69.3917 220.103 67.8557 220.469 66.2468C220.871 64.6011 221.383 62.9923 222.004 61.4194C221.529 61.968 220.816 62.6991 219.866 63.6137C218.916 64.5283 217.838 65.4608 216.632 66.4114C215.462 67.326 214.256 68.112 213.013 68.7703C211.771 69.4285 210.601 69.7577 209.505 69.7577C208.409 69.7577 207.513 69.3557 206.819 68.5508C206.343 68.0391 206.106 67.3808 206.106 66.576C206.106 65.5157 206.472 64.3637 207.202 63.12C207.933 61.8403 208.865 60.5965 209.998 59.3897C211.167 58.146 212.428 57.0488 213.781 56.0983C215.169 55.1108 216.485 54.4159 217.728 54.0137C218.349 53.7943 218.916 53.6479 219.427 53.5748C219.976 53.4651 220.451 53.4103 220.853 53.4103C222.205 53.4103 223.137 53.7577 223.649 54.4525C224.197 55.1108 224.58 55.7509 224.8 56.3725V56.4274C224.8 56.6468 224.653 56.8114 224.361 56.9211C224.069 56.994 223.923 56.9211 223.923 56.7017C223.923 56.592 223.795 56.3359 223.539 55.9337C223.32 55.5314 222.735 55.3303 221.785 55.3303C220.871 55.3303 219.848 55.5863 218.715 56.0983C217.581 56.574 216.412 57.2323 215.206 58.0731C214.037 58.878 212.941 59.7737 211.917 60.7611C210.93 61.7117 210.09 62.6811 209.395 63.6685C208.737 64.6191 208.354 65.4788 208.244 66.2468C208.207 66.3565 208.189 66.4663 208.189 66.576C208.189 66.6857 208.189 66.7954 208.189 66.9051C208.189 68.112 208.701 68.7154 209.724 68.7154C210.345 68.7154 211.04 68.5328 211.807 68.1668C212.612 67.8008 213.342 67.3808 214 66.9051C214.695 66.4294 215.188 66.0643 215.48 65.808C216.65 64.8205 217.965 63.7414 219.427 62.5714C220.89 61.3645 222.186 60.2494 223.32 59.2251C224.598 57.4697 225.988 55.4766 227.486 53.2457C228.984 50.9783 230.574 48.7291 232.255 46.4983C233.973 44.2674 235.746 42.3291 237.573 40.6834C238.121 40.1714 238.651 39.9154 239.163 39.9154C239.455 39.9154 239.674 39.9885 239.82 40.1348C240.332 40.5006 240.807 40.9394 241.246 41.4514C241.684 41.9269 241.904 42.3657 241.904 42.768C241.904 42.9874 241.867 43.1337 241.794 43.2068C241.575 43.4629 241.428 43.5908 241.355 43.5908C241.283 43.5908 241.228 43.536 241.191 43.4263C241.191 43.2799 241.173 43.1337 241.136 42.9874C241.099 42.6217 240.862 42.4388 240.424 42.4388C240.058 42.4388 239.619 42.5851 239.108 42.8777C238.632 43.1702 238.303 43.3714 238.121 43.4811C237.317 44.1028 236.385 45.0171 235.325 46.224C234.302 47.3942 233.26 48.6559 232.2 50.0091C231.177 51.3257 230.245 52.5691 229.405 53.7394C227.468 56.592 225.914 59.2431 224.745 61.6937C223.576 64.1074 222.735 66.6857 222.223 69.4285C222.15 69.9043 222.077 70.3791 222.004 70.8548C221.967 71.3305 221.949 71.7694 221.949 72.1714C221.949 73.3414 222.15 74.2928 222.552 75.024C222.991 75.792 223.703 76.176 224.69 76.176C224.946 76.176 225.201 76.158 225.458 76.1211C225.75 76.0843 226.043 76.0114 226.335 75.9017C226.993 75.6823 227.705 75.2983 228.473 74.7497C229.24 74.2011 229.99 73.5977 230.72 72.9394C231.451 72.318 232.054 71.7325 232.529 71.184C232.602 71.1111 232.657 71.0743 232.694 71.0743C232.767 71.0743 232.821 71.1291 232.858 71.2388C232.895 71.3854 232.876 71.4951 232.803 71.568C232.694 71.7505 232.402 72.1894 231.926 72.8845C231.451 73.5797 230.812 74.2928 230.008 75.024C229.203 75.7551 228.217 76.3225 227.047 76.7245C226.061 77.0537 225.183 77.2183 224.416 77.2183ZM240.266 70.1417C239.426 70.1417 238.621 70.05 237.854 69.8674C237.123 69.6848 236.446 69.4105 235.825 69.0445C235.021 68.5328 234.418 67.9474 234.016 67.2891C233.651 66.594 233.468 65.8628 233.468 65.0948C233.468 63.8151 233.907 62.4797 234.784 61.0903C235.661 59.7008 236.812 58.3843 238.238 57.1405C239.7 55.8606 241.235 54.7999 242.842 53.9588C243.792 53.4469 244.743 53.0811 245.693 52.8617C246.643 52.6423 247.484 52.5325 248.215 52.5325C249.421 52.5325 250.206 52.7702 250.572 53.2457C250.974 53.6845 251.175 54.1965 251.175 54.7817C251.175 55.4766 250.956 56.1349 250.517 56.7565C250.116 57.378 249.513 58.0003 248.708 58.6217C247.283 59.7557 245.346 60.7791 242.897 61.6937C240.485 62.6083 237.981 63.2477 235.387 63.6137C235.204 63.9797 235.04 64.3448 234.893 64.7108C234.784 65.0768 234.729 65.442 234.729 65.808C234.729 66.6128 234.985 67.2711 235.497 67.7828C236.045 68.2585 236.721 68.6057 237.525 68.8251C238.365 69.0077 239.224 69.0994 240.101 69.0994C240.54 69.0994 240.979 69.0814 241.417 69.0445C241.856 69.0077 242.257 68.9528 242.623 68.88C244.524 68.478 246.443 67.7828 248.379 66.7954C250.353 65.808 252.254 64.674 254.081 63.3943C255.908 62.1145 257.552 60.834 259.014 59.5543C259.087 59.5174 259.179 59.4994 259.288 59.4994C259.435 59.4994 259.508 59.5363 259.508 59.6091C259.508 59.7188 259.435 59.8654 259.288 60.048C259.032 60.4868 258.503 61.0534 257.699 61.7485C256.931 62.4437 256.036 63.1568 255.013 63.888C254.026 64.6191 253.057 65.3143 252.107 65.9725C251.157 66.594 250.371 67.0877 249.75 67.4537C248.397 68.2217 246.881 68.862 245.2 69.3737C243.518 69.8854 241.874 70.1417 240.266 70.1417ZM235.88 62.6811C236.721 62.4985 237.726 62.2603 238.895 61.968C240.065 61.6388 241.271 61.2548 242.514 60.816C243.792 60.3403 244.962 59.8285 246.022 59.28C247.082 58.6945 247.904 58.0731 248.489 57.4148C249.074 56.7934 249.366 56.1531 249.366 55.4948C249.366 55.2023 249.256 54.9645 249.037 54.7817C248.818 54.5623 248.379 54.4525 247.721 54.4525C246.954 54.4525 246.04 54.6902 244.98 55.1657C243.921 55.6411 242.806 56.2811 241.636 57.0857C240.503 57.8905 239.426 58.7863 238.402 59.7737C237.378 60.7243 236.538 61.6937 235.88 62.6811ZM254.347 71.1291C253.944 71.1291 253.744 70.9097 253.744 70.4708C253.744 69.9591 253.999 69.2271 254.511 68.2765C255.023 67.326 255.608 66.3565 256.266 65.3691C256.924 64.3817 257.472 63.5768 257.91 62.9554C258.202 62.5534 258.604 62.0048 259.116 61.3097C259.628 60.6145 260.158 59.8654 260.706 59.0605C261.254 58.2197 261.711 57.3968 262.077 56.592C262.478 55.7874 262.68 55.0742 262.68 54.4525C262.68 53.8309 262.478 53.3737 262.077 53.0811C261.711 52.7886 261.528 52.4777 261.528 52.1485C261.528 52.0022 261.601 51.9291 261.748 51.9291C261.93 51.9291 262.149 52.0206 262.406 52.2034C262.661 52.3497 262.935 52.5508 263.228 52.8068C263.52 53.0629 263.794 53.3554 264.05 53.6845C264.269 53.9406 264.489 54.2331 264.708 54.5623C264.927 54.8914 265.037 55.2754 265.037 55.7143C265.037 56.2628 264.836 56.8663 264.434 57.5245C263.776 58.6585 263.009 59.7008 262.131 60.6514C261.254 61.602 260.358 62.6083 259.445 63.6685C258.458 64.8025 257.563 65.8628 256.759 66.8503C255.992 67.8008 255.516 68.4043 255.334 68.6605C255.772 68.1488 256.485 67.4168 257.472 66.4663C258.494 65.4788 259.646 64.3997 260.925 63.2297C262.204 62.0597 263.483 60.9437 264.763 59.8834C266.078 58.8231 267.23 57.9634 268.216 57.3051C268.618 57.0488 269.13 56.8114 269.751 56.592C270.372 56.3359 270.975 56.208 271.561 56.208C272.072 56.208 272.492 56.3725 272.821 56.7017C273.186 56.994 273.37 57.5425 273.37 58.3474C273.37 59.0425 273.223 59.8465 272.931 60.7611C272.675 61.6757 272.383 62.5165 272.054 63.2845C271.798 63.87 271.596 64.4545 271.451 65.04C271.304 65.5885 271.232 66.1003 271.232 66.576C271.232 67.2711 271.414 67.8197 271.78 68.2217C272.182 68.6237 272.785 68.8251 273.589 68.8251C274.392 68.8251 275.416 68.6057 276.659 68.1668C278.595 67.4357 280.532 66.4294 282.47 65.1497C284.406 63.87 286.161 62.5714 287.732 61.2548C288.134 60.9257 288.5 60.6514 288.829 60.432C289.158 60.2125 289.505 59.9203 289.87 59.5543C289.943 59.5174 290.016 59.4994 290.09 59.4994C290.199 59.4994 290.254 59.5543 290.254 59.664C290.254 59.7737 290.199 59.9203 290.09 60.1028C289.87 60.3951 289.34 60.9437 288.5 61.7485C287.659 62.5165 286.617 63.3943 285.375 64.3817C284.132 65.3323 282.78 66.2648 281.318 67.1794C279.893 68.0571 278.449 68.7523 276.988 69.264C276.33 69.4465 275.635 69.5931 274.905 69.7028C274.21 69.8494 273.534 69.9222 272.876 69.9222C271.78 69.9222 270.829 69.6848 270.026 69.2091C269.221 68.7334 268.82 67.9105 268.82 66.7405C268.82 66.0094 269.002 65.1497 269.368 64.1623C269.623 63.4671 269.897 62.7728 270.19 62.0777C270.519 61.3465 270.738 60.6145 270.848 59.8834C270.884 59.7368 270.903 59.6091 270.903 59.4994C270.903 59.3528 270.903 59.2251 270.903 59.1154C270.903 58.2377 270.592 57.7988 269.971 57.7988C269.568 57.7988 269.075 57.9634 268.491 58.2925C267.942 58.5848 267.449 58.878 267.01 59.1703C266.608 59.4265 265.95 59.9563 265.037 60.7611C264.16 61.5291 263.209 62.3888 262.186 63.3394C261.163 64.29 260.194 65.2045 259.281 66.0823C258.513 66.8134 257.782 67.5814 257.088 68.3862C256.393 69.1543 255.808 69.7945 255.334 70.3063C254.858 70.8548 254.529 71.1291 254.347 71.1291ZM287.634 69.8674C286.61 69.8674 285.715 69.6848 284.948 69.3188C284.18 68.9168 283.797 68.2037 283.797 67.1794C283.797 66.0454 284.089 64.9483 284.674 63.888C285.295 62.8277 285.989 61.8763 286.757 61.0354C287.524 60.1577 288.163 59.4994 288.676 59.0605C288.347 58.9877 288.401 58.6585 288.84 58.0731C289.279 57.4877 289.918 57.0128 290.759 56.6468C290.978 56.574 291.178 56.5371 291.362 56.5371C291.763 56.5371 292.165 56.6288 292.568 56.8114C293.006 56.994 293.226 57.2503 293.226 57.5794C293.226 57.762 293.152 57.9454 293.006 58.128C292.86 58.3105 292.713 58.4571 292.568 58.5668C291.983 59.0057 291.16 59.7008 290.101 60.6514C289.077 61.566 288.2 62.4797 287.47 63.3943C286.117 65.1128 285.441 66.4483 285.441 67.3988C285.441 68.4231 286.263 68.9348 287.908 68.9348C289.26 68.9348 290.575 68.7334 291.855 68.3314C293.171 67.8925 294.395 67.3808 295.528 66.7954C297.318 65.8808 298.982 64.7837 300.517 63.504C302.052 62.1874 303.641 60.8708 305.286 59.5543C305.359 59.5174 305.451 59.4994 305.56 59.4994C305.67 59.4994 305.725 59.5543 305.725 59.664C305.725 59.7737 305.651 59.9203 305.505 60.1028C305.286 60.3951 304.829 60.8888 304.134 61.584C303.44 62.2423 302.563 62.9923 301.503 63.8331C300.48 64.674 299.329 65.5157 298.05 66.3565C296.807 67.1614 295.528 67.8557 294.212 68.4411C293.518 68.7334 292.531 69.0445 291.252 69.3737C290.009 69.7028 288.803 69.8674 287.634 69.8674ZM291.088 53.5748C290.941 53.5748 290.868 53.5382 290.868 53.4651C290.868 53.3554 291.178 53.1177 291.8 52.752C292.75 52.24 293.664 51.6731 294.541 51.0514C295.418 50.4297 296.149 49.8811 296.734 49.4057C297.099 49.3691 297.447 49.5154 297.776 49.8445C298.141 50.1371 298.287 50.3565 298.214 50.5028C297.776 50.7589 297.209 51.0514 296.515 51.3805C295.82 51.7097 295.107 52.0388 294.377 52.368C293.645 52.6971 293.006 52.9897 292.458 53.2457C292.275 53.3188 292.038 53.392 291.745 53.4651C291.453 53.5382 291.233 53.5748 291.088 53.5748ZM318.308 70.3611C316.664 70.3611 315.274 69.9223 314.142 69.0445C313.046 68.13 312.241 66.978 311.73 65.5885C311.218 64.1623 310.98 62.6991 311.017 61.2C309.665 62.2971 308.404 63.4311 307.235 64.6011C306.102 65.7711 305.06 66.9231 304.11 68.0571L304.274 68.6057C304.347 68.7523 304.384 68.9528 304.384 69.2091C304.384 69.5751 304.238 69.8494 303.946 70.032C303.689 70.2145 303.397 70.3063 303.068 70.3063C302.812 70.3063 302.575 70.2514 302.356 70.1417C302.136 70.0688 301.99 69.9223 301.917 69.7028C301.698 69.1911 301.588 68.6425 301.588 68.0571C301.588 66.6677 301.972 65.0948 302.739 63.3394C303.543 61.584 304.402 59.8654 305.316 58.1828C305.206 58.2197 305.078 58.2377 304.932 58.2377C304.639 58.2377 304.494 58.1648 304.494 58.0183C304.494 57.8717 304.603 57.726 304.823 57.5794C305.626 57.1037 306.12 56.6837 306.303 56.3177C306.961 54.9645 307.819 53.4103 308.879 51.6548C309.976 49.8994 311.218 48.0709 312.607 46.1691C314.032 44.2309 315.549 42.3657 317.157 40.5737C318.802 38.7451 320.482 37.0994 322.201 35.6365C323.918 34.1737 325.635 33.0034 327.354 32.1257C329.071 31.248 330.716 30.8091 332.288 30.8091C333.53 30.8091 334.389 31.0651 334.864 31.5771C335.339 32.0891 335.577 32.7109 335.577 33.4423C335.577 33.9542 335.467 34.4845 335.248 35.0331C335.065 35.5817 334.827 36.0937 334.535 36.5691C333.548 38.1782 332.233 39.8057 330.588 41.4514C328.98 43.0605 327.189 44.6331 325.216 46.1691C323.278 47.6685 321.269 49.0765 319.186 50.3931C317.138 51.7097 315.165 52.8983 313.265 53.9588C311.401 54.9829 309.756 55.8422 308.331 56.5371C307.6 57.9265 306.814 59.4994 305.974 61.2548C305.133 63.0103 304.567 64.5831 304.274 65.9725C305.005 65.1677 305.974 64.2351 307.18 63.1748C308.386 62.0777 309.702 60.9625 311.127 59.8285C311.237 58.9877 311.419 58.2745 311.675 57.6891C311.894 57.0677 312.132 56.6288 312.388 56.3725C312.643 56.1165 312.899 55.9885 313.155 55.9885C313.447 55.9885 313.704 56.1349 313.923 56.4274C314.142 56.6837 314.288 56.976 314.361 57.3051C315.969 56.0983 317.559 55.0011 319.131 54.0137C320.739 52.9897 322.201 52.1668 323.516 51.5451C324.868 50.9234 325.946 50.6125 326.751 50.6125C327.773 50.6125 328.286 50.9965 328.286 51.7645C328.286 52.1303 328.102 52.5143 327.738 52.9165C327.372 53.2823 326.842 53.52 326.148 53.6297C324.137 53.9222 322.091 54.544 320.008 55.4948C317.961 56.4091 315.987 57.5245 314.087 58.8411C313.575 60.0848 313.32 61.3825 313.32 62.736C313.32 63.7963 313.502 64.8205 313.868 65.808C314.233 66.7585 314.8 67.5454 315.567 68.1668C316.371 68.7523 317.412 69.0445 318.692 69.0445C319.934 69.0445 321.269 68.7882 322.693 68.2765C324.119 67.7648 325.545 67.1245 326.97 66.3565C328.431 65.5517 329.802 64.6928 331.082 63.7783C332.397 62.8637 333.53 62.0228 334.48 61.2548C334.882 60.9257 335.248 60.6514 335.577 60.432C335.942 60.2125 336.307 59.9203 336.673 59.5543C336.746 59.5174 336.838 59.4994 336.947 59.4994C337.057 59.4994 337.112 59.5543 337.112 59.664C337.112 59.7737 337.038 59.9203 336.892 60.1028C336.673 60.3591 336.18 60.834 335.412 61.5291C334.645 62.2243 333.694 63.0103 332.562 63.888C331.465 64.7657 330.259 65.6254 328.944 66.4663C327.664 67.3071 326.367 68.0391 325.051 68.6605C324.32 69.0265 323.315 69.3917 322.036 69.7577C320.793 70.1597 319.55 70.3611 318.308 70.3611ZM308.989 55.2205C311.108 54.0503 313.301 52.8068 315.567 51.4903C317.833 50.1371 320.044 48.6925 322.201 47.1565C324.393 45.6205 326.422 43.9382 328.286 42.1097C330.15 40.2811 331.721 38.3063 333 36.1851C333.183 35.8926 333.439 35.4354 333.768 34.8137C334.097 34.192 334.261 33.6251 334.261 33.1131C334.261 32.8571 334.169 32.6377 333.987 32.4548C333.841 32.2354 333.548 32.1257 333.11 32.1257C332.415 32.1257 331.483 32.4 330.314 32.9485C329.144 33.4605 327.902 34.1554 326.586 35.0331C325.271 35.8742 324.01 36.7703 322.804 37.7211C321.634 38.6719 320.666 39.5863 319.898 40.464C318.947 41.5611 317.925 42.768 316.828 44.0845C315.732 45.3645 314.653 46.6811 313.594 48.0343C312.57 49.3874 311.638 50.6857 310.798 51.9291C309.994 53.1726 309.391 54.2697 308.989 55.2205ZM318.051 96.5828C316.954 96.5828 315.931 96.4002 314.981 96.0342C313.994 95.7051 313.19 95.1934 312.569 94.4983C311.948 93.84 311.637 93.054 311.637 92.1394C311.637 90.4208 312.094 88.83 313.007 87.3668C313.921 85.9405 315.109 84.624 316.57 83.4171C318.033 82.2103 319.64 81.1311 321.396 80.1805C323.113 79.23 324.812 78.3703 326.494 77.6023C328.174 76.8343 329.655 76.158 330.934 75.5725C331.775 75.1705 332.834 74.7317 334.114 74.256C335.43 73.7803 336.836 73.2865 338.335 72.7748C339.833 72.2631 341.313 71.7694 342.775 71.2937C344.237 70.8548 345.552 70.4708 346.722 70.1417C347.307 69.0814 347.819 67.8197 348.257 66.3565C348.696 64.8574 348.915 63.5408 348.915 62.4068C348.915 61.8951 348.86 61.4563 348.751 61.0903C348.641 60.6883 348.458 60.414 348.203 60.2674L347.874 60.5965C347.325 61.1083 346.576 61.8583 345.626 62.8457C344.675 63.8331 343.616 64.8574 342.446 65.9177C341.313 66.942 340.144 67.8197 338.938 68.5508C337.768 69.246 336.69 69.5931 335.704 69.5931C334.753 69.5931 333.967 69.1723 333.346 68.3314C332.981 67.8197 332.798 67.2163 332.798 66.5211C332.798 65.3511 333.218 64.0894 334.059 62.736C334.936 61.3825 335.996 60.0848 337.239 58.8411C337.311 58.7314 337.513 58.494 337.842 58.128C338.171 57.762 338.499 57.3968 338.828 57.0308C339.193 56.6648 339.449 56.4274 339.596 56.3177C339.449 56.208 339.522 55.9337 339.815 55.4948C340.107 55.056 340.491 54.6537 340.966 54.288C341.478 53.9222 341.916 53.8491 342.282 54.0685C342.611 54.2514 342.885 54.4525 343.104 54.672C343.36 54.8548 343.488 55.056 343.488 55.2754C343.488 55.4948 343.324 55.7691 342.995 56.0983L341.843 57.1954C341.149 57.8905 340.363 58.6765 339.485 59.5543C338.645 60.432 337.842 61.3277 337.074 62.2423C336.307 63.12 335.667 63.9608 335.155 64.7657C334.643 65.5337 334.351 66.174 334.278 66.6857C334.241 66.8323 334.223 66.96 334.223 67.0697C334.223 67.1794 334.223 67.2891 334.223 67.3988C334.223 68.4591 334.625 68.9897 335.429 68.9897C336.014 68.9897 336.69 68.7703 337.458 68.3314C338.261 67.8557 339.011 67.344 339.705 66.7954C340.436 66.2468 340.947 65.8448 341.24 65.5885C342.337 64.638 343.396 63.6505 344.42 62.6263C345.48 61.602 346.521 60.6334 347.545 59.7188C347.508 59.4994 347.581 59.28 347.764 59.0605C347.983 58.8043 348.385 58.6397 348.97 58.5668C349.774 58.494 350.395 58.7683 350.834 59.3897C351.272 59.9751 351.492 60.8528 351.492 62.0228C351.492 62.9374 351.345 63.9797 351.053 65.1497C350.76 66.3197 350.286 67.6003 349.628 68.9897C352.332 67.8197 354.854 66.576 357.193 65.2594C359.532 63.9428 361.743 62.334 363.826 60.432C364.118 60.1757 364.484 59.8285 364.923 59.3897C365.361 58.914 365.763 58.512 366.129 58.1828C366.531 57.8168 366.787 57.6523 366.896 57.6891C367.079 57.726 367.042 57.9634 366.787 58.4023C366.531 58.8043 365.873 59.5543 364.813 60.6514C362.803 62.6991 360.537 64.4734 358.015 65.9725C355.494 67.4357 352.479 68.88 348.97 70.3063C347.142 73.89 345.004 77.2551 342.556 80.4C340.144 83.5817 337.549 86.3794 334.772 88.7931C331.994 91.2437 329.18 93.1448 326.329 94.4983C323.478 95.8877 320.719 96.5828 318.051 96.5828ZM317.064 95.376C318.636 95.376 320.482 94.992 322.601 94.224C324.684 93.456 326.804 92.3957 328.961 91.0423C331.153 89.6888 333.145 88.1168 334.936 86.3245C335.776 85.4837 336.763 84.3865 337.896 83.0331C339.029 81.7165 340.162 80.3083 341.295 78.8091C342.428 77.31 343.433 75.9017 344.31 74.5851C345.223 73.2685 345.863 72.2262 346.229 71.4582C343.561 72.0797 340.728 72.9394 337.732 74.0365C334.772 75.1337 331.847 76.3774 328.961 77.7668C326.11 79.1931 323.515 80.6922 321.175 82.2651C318.8 83.874 316.881 85.4837 315.419 87.0925C313.958 88.7383 313.154 90.3111 313.007 91.8102C312.934 93.054 313.281 93.9497 314.049 94.4983C314.78 95.0837 315.785 95.376 317.064 95.376Z" fill="black"/>
<path d="M213.749 96.8571H213.012V86.5517H210.821V85.8428H215.94V86.5517H213.749V96.8571ZM219.486 97.008C218.622 97.008 217.957 96.6411 217.491 95.9083C217.029 95.1694 216.799 94.1425 216.799 92.8268C216.799 91.4305 217.004 90.366 217.415 89.6322C217.832 88.8942 218.429 88.5248 219.207 88.5248C219.885 88.5248 220.419 88.8488 220.811 89.4968C221.202 90.1397 221.398 91.0088 221.398 92.1034V92.7668H217.528C217.539 93.9565 217.706 94.848 218.033 95.4411C218.359 96.0334 218.853 96.33 219.516 96.33C220.028 96.33 220.567 96.1611 221.134 95.8251V96.5177C220.613 96.8442 220.063 97.008 219.486 97.008ZM219.162 89.1728C218.178 89.1728 217.639 90.1551 217.544 92.1188H220.683C220.683 91.2197 220.545 90.504 220.268 89.9717C219.998 89.4394 219.629 89.1728 219.162 89.1728ZM225.486 88.5248C225.742 88.5248 225.98 88.56 226.201 88.6302L226.028 89.346C225.847 89.2705 225.661 89.2328 225.471 89.2328C225.195 89.2328 224.937 89.376 224.695 89.6622C224.46 89.9442 224.274 90.3385 224.138 90.8451C224.003 91.3525 223.935 91.9122 223.935 92.5251V96.8571H223.22V88.6834H223.807L223.882 90.1148H223.935C224.317 89.0545 224.833 88.5248 225.486 88.5248ZM229.755 97.008C228.892 97.008 228.226 96.6411 227.759 95.9083C227.297 95.1694 227.067 94.1425 227.067 92.8268C227.067 91.4305 227.273 90.366 227.685 89.6322C228.101 88.8942 228.698 88.5248 229.476 88.5248C230.153 88.5248 230.688 88.8488 231.079 89.4968C231.471 90.1397 231.667 91.0088 231.667 92.1034V92.7668H227.797C227.807 93.9565 227.975 94.848 228.301 95.4411C228.628 96.0334 229.122 96.33 229.785 96.33C230.296 96.33 230.836 96.1611 231.403 95.8251V96.5177C230.881 96.8442 230.331 97.008 229.755 97.008ZM229.431 89.1728C228.447 89.1728 227.907 90.1551 227.812 92.1188H230.952C230.952 91.2197 230.814 90.504 230.538 89.9717C230.266 89.4394 229.898 89.1728 229.431 89.1728ZM236.116 96.8571H232.841V96.2845L235.251 89.316H233V88.6834H236.003V89.2637L233.602 96.2245H236.116V96.8571ZM240.731 96.8571L240.641 95.712H240.61C240.219 96.576 239.627 97.008 238.834 97.008C238.302 97.008 237.873 96.7971 237.546 96.3754C237.225 95.9477 237.065 95.3777 237.065 94.6645C237.065 93.8862 237.298 93.2708 237.765 92.8191C238.232 92.3622 238.887 92.1137 239.73 92.0734L240.61 92.028V91.35C240.61 90.5871 240.515 90.0317 240.324 89.6854C240.134 89.334 239.818 89.1583 239.376 89.1583C238.909 89.1583 238.432 89.3108 237.945 89.6177L237.637 89.0528C238.204 88.7005 238.799 88.5248 239.421 88.5248C240.094 88.5248 240.578 88.7382 240.874 89.1651C241.17 89.5877 241.319 90.2957 241.319 91.29V96.8571H240.731ZM238.992 96.3977C239.504 96.3977 239.9 96.1465 240.181 95.6443C240.467 95.1368 240.61 94.4211 240.61 93.4971V92.646L239.76 92.6914C239.103 92.7265 238.613 92.91 238.291 93.2408C237.975 93.5674 237.818 94.0474 237.818 94.68C237.818 95.2723 237.923 95.7068 238.134 95.9828C238.345 96.2597 238.631 96.3977 238.992 96.3977ZM250.713 93.972C250.713 94.8754 250.462 95.6091 249.96 96.1714C249.459 96.7294 248.821 97.008 248.049 97.008C247.171 97.008 246.465 96.8794 245.933 96.624V95.8251C246.194 95.9708 246.518 96.0865 246.904 96.1714C247.291 96.2571 247.673 96.3 248.049 96.3C248.611 96.3 249.072 96.0865 249.434 95.6597C249.795 95.232 249.976 94.6902 249.976 94.032C249.976 93.4242 249.848 92.9425 249.592 92.586C249.336 92.2294 248.847 91.8728 248.124 91.5162C247.557 91.23 247.133 90.9531 246.852 90.6874C246.57 90.4157 246.362 90.102 246.227 89.7454C246.091 89.3888 246.024 88.962 246.024 88.4648C246.024 87.9222 246.134 87.4405 246.354 87.018C246.575 86.5962 246.885 86.2697 247.28 86.0391C247.677 85.8034 248.111 85.6851 248.583 85.6851C249.01 85.6851 249.396 85.7322 249.742 85.8282C250.094 85.9234 250.37 86.0262 250.57 86.1368L250.284 86.8448C249.727 86.5585 249.16 86.4154 248.583 86.4154C248.041 86.4154 247.6 86.6014 247.258 86.9734C246.922 87.3394 246.753 87.8271 246.753 88.4348C246.753 89.0528 246.877 89.532 247.123 89.874C247.368 90.2151 247.851 90.5691 248.568 90.936C249.311 91.2977 249.853 91.722 250.194 92.2088C250.54 92.6914 250.713 93.2785 250.713 93.972ZM253.386 96.8571L251.459 88.6834H252.182L253.401 93.942C253.542 94.5497 253.677 95.2123 253.808 95.9305H253.868C253.903 95.6691 253.954 95.3777 254.019 95.0562C254.084 94.7348 254.578 92.6108 255.502 88.6834H256.225L254.237 96.8571H253.386ZM261.999 92.7514C261.999 94.1271 261.78 95.1822 261.343 95.9151C260.913 96.6437 260.292 97.008 259.485 97.008C258.686 97.008 258.074 96.6437 257.647 95.9151C257.226 95.1822 257.015 94.1271 257.015 92.7514C257.015 89.934 257.848 88.5248 259.515 88.5248C260.298 88.5248 260.907 88.8942 261.343 89.6322C261.78 90.3711 261.999 91.4108 261.999 92.7514ZM257.76 92.7514C257.76 93.9317 257.901 94.8231 258.182 95.4257C258.463 96.0282 258.902 96.33 259.499 96.33C260.668 96.33 261.253 95.1368 261.253 92.7514C261.253 90.3857 260.668 89.2028 259.499 89.2028C258.887 89.2028 258.443 89.4994 258.166 90.0917C257.896 90.6848 257.76 91.5711 257.76 92.7514ZM266.328 88.5402C267.923 88.5402 268.722 89.9443 268.722 92.7514C268.722 94.1374 268.523 95.1951 268.127 95.9228C267.73 96.6462 267.159 97.008 266.41 97.008C266.019 97.008 265.662 96.9 265.341 96.684C265.02 96.468 264.754 96.1491 264.544 95.7274H264.483L264.385 96.8571H263.798V85.1348H264.514V88.7734L264.483 89.7608H264.544C264.975 88.9465 265.57 88.5402 266.328 88.5402ZM266.298 89.2028C265.67 89.2028 265.216 89.4797 264.935 90.0317C264.654 90.5845 264.514 91.4905 264.514 92.7514V92.94C264.514 95.22 265.118 96.36 266.328 96.36C266.879 96.36 267.291 96.066 267.562 95.4788C267.838 94.8908 267.977 93.9823 267.977 92.7514C267.977 91.5711 267.843 90.6848 267.577 90.0917C267.311 89.4994 266.885 89.2028 266.298 89.2028ZM275.128 92.7514C275.128 94.1271 274.91 95.1822 274.474 95.9151C274.042 96.6437 273.422 97.008 272.614 97.008C271.816 97.008 271.203 96.6437 270.777 95.9151C270.355 95.1822 270.145 94.1271 270.145 92.7514C270.145 89.934 270.978 88.5248 272.644 88.5248C273.427 88.5248 274.037 88.8942 274.474 89.6322C274.91 90.3711 275.128 91.4108 275.128 92.7514ZM270.89 92.7514C270.89 93.9317 271.03 94.8231 271.311 95.4257C271.592 96.0282 272.032 96.33 272.629 96.33C273.798 96.33 274.383 95.1368 274.383 92.7514C274.383 90.3857 273.798 89.2028 272.629 89.2028C272.016 89.2028 271.572 89.4994 271.297 90.0917C271.025 90.6848 270.89 91.5711 270.89 92.7514ZM278.923 97.008C277.336 97.008 276.544 95.5988 276.544 92.7814C276.544 91.3954 276.742 90.3402 277.138 89.6177C277.535 88.8891 278.119 88.5248 278.893 88.5248C279.258 88.5248 279.605 88.6302 279.932 88.8411C280.262 89.0528 280.526 89.3434 280.721 89.7154H280.782L280.752 88.8034V85.1348H281.468V96.8571H280.88L280.82 95.712H280.752C280.556 96.1285 280.303 96.45 279.992 96.6762C279.681 96.8974 279.324 97.008 278.923 97.008ZM278.968 96.3822C279.54 96.3822 279.979 96.1191 280.285 95.5911C280.596 95.0588 280.752 94.278 280.752 93.2485V92.7814C280.752 91.5462 280.602 90.642 280.3 90.0694C280.005 89.4917 279.55 89.2028 278.937 89.2028C278.35 89.2028 277.929 89.5122 277.673 90.1294C277.417 90.7422 277.289 91.6311 277.289 92.7968C277.289 93.972 277.422 94.8634 277.688 95.4711C277.954 96.0788 278.38 96.3822 278.968 96.3822ZM288.258 92.7514C288.258 94.1271 288.039 95.1822 287.603 95.9151C287.171 96.6437 286.551 97.008 285.744 97.008C284.945 97.008 284.333 96.6437 283.906 95.9151C283.485 95.1822 283.274 94.1271 283.274 92.7514C283.274 89.934 284.107 88.5248 285.773 88.5248C286.556 88.5248 287.166 88.8942 287.603 89.6322C288.039 90.3711 288.258 91.4108 288.258 92.7514ZM284.019 92.7514C284.019 93.9317 284.16 94.8231 284.441 95.4257C284.722 96.0282 285.161 96.33 285.758 96.33C286.928 96.33 287.512 95.1368 287.512 92.7514C287.512 90.3857 286.928 89.2028 285.758 89.2028C285.146 89.2028 284.702 89.4994 284.426 90.0917C284.155 90.6848 284.019 91.5711 284.019 92.7514ZM290.968 96.8571L289.04 88.6834H289.763L290.983 93.942C291.124 94.5497 291.259 95.2123 291.39 95.9305H291.45C291.485 95.6691 291.536 95.3777 291.601 95.0562C291.666 94.7348 292.16 92.6108 293.083 88.6834H293.806L291.819 96.8571H290.968ZM298.142 96.8571L298.052 95.712H298.022C297.631 96.576 297.038 97.008 296.246 97.008C295.713 97.008 295.284 96.7971 294.958 96.3754C294.637 95.9477 294.476 95.3777 294.476 94.6645C294.476 93.8862 294.71 93.2708 295.176 92.8191C295.643 92.3622 296.298 92.1137 297.141 92.0734L298.022 92.028V91.35C298.022 90.5871 297.926 90.0317 297.736 89.6854C297.545 89.334 297.229 89.1583 296.787 89.1583C296.32 89.1583 295.844 89.3108 295.357 89.6177L295.048 89.0528C295.615 88.7005 296.211 88.5248 296.833 88.5248C297.505 88.5248 297.99 88.7382 298.285 89.1651C298.582 89.5877 298.73 90.2957 298.73 91.29V96.8571H298.142ZM296.403 96.3977C296.916 96.3977 297.312 96.1465 297.593 95.6443C297.879 95.1368 298.022 94.4211 298.022 93.4971V92.646L297.172 92.6914C296.514 92.7265 296.025 92.91 295.704 93.2408C295.388 93.5674 295.229 94.0474 295.229 94.68C295.229 95.2723 295.334 95.7068 295.545 95.9828C295.756 96.2597 296.042 96.3977 296.403 96.3977ZM296.072 87.5082V87.3497C296.71 86.5165 297.189 85.7451 297.51 85.0371H298.452V85.1648C298.255 85.5171 297.957 85.9208 297.556 86.3777C297.159 86.8354 296.782 87.2117 296.426 87.5082H296.072Z" fill="black"/>
<path d="M82.5515 -25.2857H36.8323C35.6497 -25.2857 34.6909 -24.3263 34.6909 -23.1428V-2.57142C34.6909 -1.38795 35.6497 -0.428562 36.8323 -0.428562H82.5515C83.7342 -0.428562 84.6929 -1.38795 84.6929 -2.57142V-23.1428C84.6929 -24.3263 83.7342 -25.2857 82.5515 -25.2857Z" stroke="black" stroke-opacity="0.14902"/>
</g>
<defs>
<clipPath id="clip0_77_106">
<rect width="424" height="156" fill="white"/>
</clipPath>
</defs>
</svg>
